<svg width="1210" height="1338" viewBox="0 0 1210 1338" fill="none" xmlns="http://www.w3.org/2000/svg">
<g filter="url(#filter0_f_74_428)">
<circle cx="873.443" cy="1172.46" r="131.148" fill="#22C55E" fill-opacity="0.78"/>
</g>
<g filter="url(#filter1_f_74_428)">
<circle cx="1021.64" cy="1057.05" r="131.148" fill="#39A331" fill-opacity="0.76"/>
</g>
<g filter="url(#filter2_f_74_428)">
<circle cx="1068.85" cy="1196.07" r="131.148" fill="#22C55E" fill-opacity="0.71"/>
</g>
<g filter="url(#filter3_f_74_428)">
<circle cx="257.914" cy="177.5" r="131.148" transform="rotate(28.142 257.914 177.5)" fill="#22C55E" fill-opacity="0.71"/>
</g>
<g filter="url(#filter4_f_74_428)">
<circle cx="368.797" cy="284.404" r="131.148" transform="rotate(28.142 368.797 284.404)" fill="#39A331" fill-opacity="0.76"/>
</g>
<g filter="url(#filter5_f_74_428)">
<circle cx="215.663" cy="348.25" r="131.148" transform="rotate(28.142 215.663 348.25)" fill="#22C55E" fill-opacity="0.78"/>
</g>
<g clip-path="url(#clip0_74_428)">
<path d="M154.904 1182.58C157.009 1183.4 159.27 1183.6 161.467 1183.17C163.665 1182.74 165.726 1181.69 167.452 1180.12C171.847 1176.03 173.226 1169.29 174.347 1163.05L177.663 1144.59L170.72 1149.89C165.726 1153.71 160.621 1157.64 157.164 1163.17C153.707 1168.69 152.198 1176.23 154.975 1182.21" fill="#E6E6E6"/>
<path d="M155.975 1206.21C155.101 1199.15 154.202 1192 154.817 1184.86C155.361 1178.52 157.105 1172.33 160.655 1167.25C162.539 1164.57 164.832 1162.26 167.43 1160.45C168.107 1159.97 168.731 1161.16 168.056 1161.63C163.561 1164.78 160.083 1169.44 158.126 1174.92C155.964 1181.02 155.617 1187.67 155.989 1194.15C156.214 1198.07 156.692 1201.96 157.173 1205.85C157.211 1206.02 157.187 1206.21 157.107 1206.36C157.026 1206.52 156.895 1206.64 156.739 1206.69C156.58 1206.74 156.411 1206.72 156.268 1206.63C156.125 1206.54 156.02 1206.39 155.976 1206.21L155.975 1206.21Z" fill="#F2F2F2"/>
<path d="M162.266 1194.88C163.168 1196.4 164.41 1197.64 165.87 1198.48C167.329 1199.32 168.959 1199.72 170.601 1199.66C174.821 1199.43 178.338 1196.17 181.504 1193.07L190.87 1183.89L184.672 1183.57C180.214 1183.33 175.641 1183.11 171.396 1184.63C167.15 1186.16 163.234 1189.83 162.458 1194.7" fill="#E6E6E6"/>
<path d="M153.505 1210.27C157.712 1202.02 162.592 1192.84 171.312 1189.91C173.736 1189.09 176.278 1188.8 178.801 1189.05C179.597 1189.13 179.398 1190.48 178.604 1190.41C174.375 1190.02 170.154 1191.26 166.652 1193.92C163.36 1196.57 160.568 1199.91 158.437 1203.75C157.076 1206.05 155.858 1208.44 154.639 1210.83C154.25 1211.6 153.111 1211.05 153.505 1210.27Z" fill="#F2F2F2"/>
<path d="M539.751 1171.78C542.651 1172.91 545.764 1173.2 548.79 1172.61C551.817 1172.01 554.655 1170.57 557.032 1168.41C563.084 1162.77 564.982 1153.49 566.526 1144.9L571.093 1119.47L561.531 1126.78C554.655 1132.03 547.624 1137.45 542.864 1145.05C538.103 1152.66 536.026 1163.04 539.85 1171.27" fill="#E6E6E6"/>
<path d="M541.227 1204.33C540.024 1194.61 538.786 1184.76 539.632 1174.93C540.382 1166.2 542.783 1157.68 547.671 1150.68C550.266 1146.98 553.423 1143.81 557.001 1141.31C557.934 1140.65 558.792 1142.29 557.864 1142.94C551.673 1147.28 546.884 1153.69 544.189 1161.24C541.211 1169.64 540.733 1178.8 541.246 1187.72C541.556 1193.11 542.215 1198.47 542.876 1203.83C542.929 1204.07 542.896 1204.33 542.785 1204.54C542.674 1204.76 542.493 1204.92 542.279 1204.99C542.061 1205.06 541.828 1205.03 541.631 1204.9C541.434 1204.78 541.289 1204.57 541.228 1204.33L541.227 1204.33Z" fill="#F2F2F2"/>
<path d="M549.89 1188.73C551.133 1190.83 552.842 1192.53 554.852 1193.68C556.863 1194.83 559.107 1195.39 561.368 1195.3C567.18 1195 572.023 1190.5 576.382 1186.23L589.28 1173.6L580.744 1173.14C574.606 1172.82 568.309 1172.51 562.462 1174.61C556.616 1176.72 551.224 1181.77 550.155 1188.48" fill="#E6E6E6"/>
<path d="M537.826 1209.92C543.62 1198.55 550.339 1185.92 562.347 1181.88C565.686 1180.76 569.186 1180.36 572.66 1180.7C573.756 1180.8 573.482 1182.67 572.389 1182.57C566.565 1182.03 560.753 1183.74 555.93 1187.4C551.289 1190.9 547.675 1195.77 544.617 1200.94C542.744 1204.1 541.066 1207.4 539.388 1210.7C538.851 1211.75 537.283 1210.99 537.826 1209.92Z" fill="#F2F2F2"/>
<path d="M485.45 1000.7C484.839 1000.41 484.347 999.873 484.068 999.202C483.789 998.53 483.742 997.769 483.937 997.062C483.968 996.953 483.988 996.841 483.996 996.728C484.014 996.404 483.937 996.082 483.777 995.811C483.617 995.539 483.382 995.331 483.108 995.219C482.833 995.107 482.534 995.095 482.253 995.187C481.972 995.278 481.725 995.468 481.549 995.727C481.489 995.819 481.438 995.918 481.399 996.023C481.133 996.701 480.651 997.247 480.046 997.556C479.441 997.865 478.754 997.917 478.117 997.702C478.019 997.667 477.918 997.645 477.816 997.636C477.523 997.616 477.233 997.702 476.988 997.879C476.743 998.056 476.557 998.317 476.455 998.621C476.354 998.925 476.344 999.258 476.426 999.569C476.509 999.881 476.679 1000.15 476.913 1000.35C476.996 1000.42 477.086 1000.47 477.18 1000.52C477.791 1000.81 478.283 1001.35 478.562 1002.02C478.841 1002.69 478.888 1003.45 478.694 1004.16C478.662 1004.27 478.642 1004.38 478.635 1004.49C478.617 1004.81 478.693 1005.14 478.853 1005.41C479.013 1005.68 479.248 1005.89 479.522 1006C479.797 1006.11 480.097 1006.12 480.377 1006.03C480.658 1005.94 480.905 1005.75 481.081 1005.49C481.142 1005.4 481.192 1005.3 481.232 1005.2C481.498 1004.52 481.979 1003.97 482.584 1003.66C483.19 1003.35 483.876 1003.3 484.514 1003.52C484.611 1003.55 484.712 1003.57 484.815 1003.58C485.107 1003.6 485.397 1003.52 485.642 1003.34C485.887 1003.16 486.074 1002.9 486.175 1002.6C486.276 1002.29 486.287 1001.96 486.204 1001.65C486.122 1001.34 485.951 1001.06 485.717 1000.87C485.634 1000.8 485.545 1000.75 485.45 1000.7Z" fill="#CBCBCB"/>
<path d="M537.181 1134.31C536.57 1134.01 536.078 1133.48 535.799 1132.81C535.52 1132.14 535.473 1131.38 535.668 1130.67C535.699 1130.56 535.719 1130.45 535.727 1130.33C535.745 1130.01 535.668 1129.69 535.508 1129.42C535.348 1129.15 535.113 1128.94 534.839 1128.83C534.564 1128.71 534.265 1128.7 533.984 1128.79C533.703 1128.88 533.456 1129.07 533.28 1129.33C533.22 1129.43 533.169 1129.52 533.13 1129.63C532.864 1130.31 532.382 1130.85 531.777 1131.16C531.172 1131.47 530.485 1131.52 529.848 1131.31C529.75 1131.27 529.649 1131.25 529.546 1131.24C529.254 1131.22 528.964 1131.31 528.719 1131.49C528.474 1131.66 528.287 1131.92 528.186 1132.23C528.085 1132.53 528.075 1132.86 528.157 1133.18C528.24 1133.49 528.41 1133.76 528.644 1133.96C528.727 1134.02 528.817 1134.08 528.911 1134.12C529.522 1134.42 530.014 1134.95 530.293 1135.62C530.572 1136.29 530.619 1137.06 530.425 1137.76C530.393 1137.87 530.373 1137.98 530.365 1138.1C530.348 1138.42 530.424 1138.74 530.584 1139.01C530.744 1139.29 530.979 1139.49 531.253 1139.61C531.528 1139.72 531.828 1139.73 532.108 1139.64C532.389 1139.55 532.636 1139.36 532.812 1139.1C532.872 1139.01 532.923 1138.91 532.963 1138.8C533.229 1138.12 533.71 1137.58 534.315 1137.27C534.921 1136.96 535.607 1136.91 536.245 1137.12C536.342 1137.16 536.443 1137.18 536.546 1137.19C536.838 1137.21 537.128 1137.12 537.373 1136.95C537.618 1136.77 537.805 1136.51 537.906 1136.2C538.007 1135.9 538.017 1135.57 537.935 1135.26C537.853 1134.94 537.682 1134.67 537.448 1134.48C537.365 1134.41 537.276 1134.35 537.181 1134.31Z" fill="#F1F1F1"/>
<path d="M265.961 1056.44C265.35 1056.14 264.858 1055.61 264.579 1054.94C264.3 1054.27 264.254 1053.51 264.448 1052.8C264.48 1052.69 264.499 1052.58 264.507 1052.47C264.525 1052.14 264.448 1051.82 264.288 1051.55C264.128 1051.28 263.894 1051.07 263.619 1050.96C263.345 1050.84 263.045 1050.83 262.764 1050.92C262.483 1051.02 262.237 1051.21 262.061 1051.46C262 1051.56 261.949 1051.66 261.91 1051.76C261.644 1052.44 261.162 1052.98 260.557 1053.29C259.952 1053.6 259.265 1053.65 258.628 1053.44C258.53 1053.4 258.429 1053.38 258.327 1053.37C258.035 1053.35 257.745 1053.44 257.5 1053.62C257.255 1053.79 257.068 1054.05 256.966 1054.36C256.865 1054.66 256.855 1055 256.938 1055.31C257.02 1055.62 257.191 1055.89 257.424 1056.09C257.507 1056.15 257.597 1056.21 257.692 1056.25C258.303 1056.55 258.794 1057.08 259.073 1057.75C259.352 1058.43 259.399 1059.19 259.205 1059.89C259.173 1060 259.153 1060.12 259.146 1060.23C259.128 1060.55 259.205 1060.87 259.365 1061.15C259.525 1061.42 259.759 1061.63 260.034 1061.74C260.308 1061.85 260.608 1061.86 260.889 1061.77C261.169 1061.68 261.416 1061.49 261.592 1061.23C261.653 1061.14 261.703 1061.04 261.743 1060.93C262.009 1060.26 262.49 1059.71 263.096 1059.4C263.701 1059.09 264.387 1059.04 265.025 1059.25C265.123 1059.29 265.224 1059.31 265.326 1059.32C265.618 1059.34 265.908 1059.25 266.153 1059.08C266.398 1058.9 266.585 1058.64 266.686 1058.34C266.788 1058.03 266.798 1057.7 266.715 1057.39C266.633 1057.08 266.462 1056.8 266.229 1056.61C266.146 1056.54 266.056 1056.48 265.961 1056.44Z" fill="#F1F1F1"/>
<path d="M379.108 1008.52C381.557 1008.52 383.543 1006.32 383.543 1003.61C383.543 1000.89 381.557 998.689 379.108 998.689C376.66 998.689 374.674 1000.89 374.674 1003.61C374.674 1006.32 376.66 1008.52 379.108 1008.52Z" fill="#F1F1F1"/>
<path d="M615.595 995.41C618.043 995.41 620.029 993.208 620.029 990.492C620.029 987.776 618.043 985.574 615.595 985.574C613.146 985.574 611.16 987.776 611.16 990.492C611.16 993.208 613.146 995.41 615.595 995.41Z" fill="#30E057"/>
<path d="M271.211 972.459C273.66 972.459 275.646 970.257 275.646 967.541C275.646 964.825 273.66 962.623 271.211 962.623C268.763 962.623 266.777 964.825 266.777 967.541C266.777 970.257 268.763 972.459 271.211 972.459Z" fill="#CBCBCB"/>
<path d="M254.16 1195.98C271.737 1195.98 285.987 1180.17 285.987 1160.68C285.987 1141.18 271.737 1125.37 254.16 1125.37C236.582 1125.37 222.332 1141.18 222.332 1160.68C222.332 1180.17 236.582 1195.98 254.16 1195.98Z" fill="#2F2E41"/>
<path d="M249.325 1188.38H239.656V1207.59H249.325V1188.38Z" fill="#2F2E41"/>
<path d="M268.663 1188.38H258.994V1207.59H268.663V1188.38Z" fill="#2F2E41"/>
<path d="M247.713 1211.17C252.163 1211.17 255.771 1209.67 255.771 1207.82C255.771 1205.97 252.163 1204.47 247.713 1204.47C243.263 1204.47 239.656 1205.97 239.656 1207.82C239.656 1209.67 243.263 1211.17 247.713 1211.17Z" fill="#2F2E41"/>
<path d="M267.052 1210.72C271.502 1210.72 275.109 1209.22 275.109 1207.37C275.109 1205.52 271.502 1204.02 267.052 1204.02C262.602 1204.02 258.994 1205.52 258.994 1207.37C258.994 1209.22 262.602 1210.72 267.052 1210.72Z" fill="#2F2E41"/>
<path d="M288.457 1145.25C295.35 1137.6 299.182 1129.45 297.016 1127.05C294.851 1124.65 287.508 1128.91 280.615 1136.56C273.722 1144.21 269.89 1152.36 272.055 1154.76C274.221 1157.16 281.564 1152.9 288.457 1145.25Z" fill="#2F2E41"/>
<path d="M228.506 1157.22C230.671 1154.82 226.839 1146.67 219.946 1139.02C213.053 1131.37 205.71 1127.11 203.545 1129.51C201.379 1131.91 205.211 1140.06 212.104 1147.71C218.997 1155.36 226.34 1159.62 228.506 1157.22Z" fill="#2F2E41"/>
<path d="M252.821 1167.74C258.828 1167.74 263.698 1162.34 263.698 1155.67C263.698 1149.01 258.828 1143.61 252.821 1143.61C246.813 1143.61 241.943 1149.01 241.943 1155.67C241.943 1162.34 246.813 1167.74 252.821 1167.74Z" fill="white"/>
<path d="M252.821 1159.69C254.823 1159.69 256.447 1157.89 256.447 1155.67C256.447 1153.45 254.823 1151.65 252.821 1151.65C250.818 1151.65 249.195 1153.45 249.195 1155.67C249.195 1157.89 250.818 1159.69 252.821 1159.69Z" fill="#3F3D56"/>
<path d="M261.456 1177.99C261.792 1180.03 261.381 1182.14 260.313 1183.86C259.246 1185.57 257.609 1186.74 255.763 1187.11C253.917 1187.48 252.013 1187.03 250.471 1185.84C248.928 1184.66 247.872 1182.84 247.536 1180.8L247.534 1180.78C246.838 1176.52 249.81 1175.01 253.655 1174.24C257.499 1173.46 260.76 1173.72 261.456 1177.99Z" fill="white"/>
<path d="M285.369 1197.72C284.652 1197.73 283.965 1198.04 283.459 1198.6C282.952 1199.16 282.667 1199.93 282.667 1200.72V1206.98C282.667 1207.78 282.952 1208.54 283.459 1209.1C283.965 1209.66 284.652 1209.98 285.369 1209.98H328.845C329.561 1209.98 330.248 1209.66 330.755 1209.1C331.261 1208.54 331.546 1207.78 331.547 1206.98V1200.72C331.546 1199.93 331.261 1199.16 330.755 1198.6C330.248 1198.04 329.561 1197.73 328.845 1197.72H285.369Z" fill="#E5E5E5"/>
<path d="M310.371 1193.56C310.102 1193.38 309.782 1193.34 309.482 1193.43C309.181 1193.51 308.926 1193.73 308.77 1194.03L307.154 1197.13L305.571 1193.66C305.431 1193.36 305.186 1193.12 304.891 1193.02C304.596 1192.91 304.274 1192.94 303.997 1193.09C303.719 1193.25 303.509 1193.52 303.412 1193.85C303.316 1194.17 303.34 1194.53 303.48 1194.84L304.712 1197.54H304.261V1210.16H310.287V1197.54H309.65L310.8 1195.33C310.955 1195.03 310.997 1194.68 310.917 1194.34C310.836 1194.01 310.64 1193.73 310.371 1193.56Z" fill="#30E057"/>
<path d="M253.34 1137.52C247.685 1137.51 242.063 1136.56 236.664 1134.69C236.289 1134.56 235.962 1134.3 235.729 1133.95C235.497 1133.59 235.371 1133.17 235.369 1132.73V1118.36C235.37 1117.82 235.565 1117.3 235.911 1116.91C236.257 1116.53 236.727 1116.31 237.217 1116.31H269.734C270.223 1116.31 270.693 1116.53 271.039 1116.91C271.386 1117.3 271.58 1117.82 271.581 1118.36V1132.72C271.581 1133.16 271.454 1133.59 271.217 1133.95C270.98 1134.3 270.647 1134.56 270.266 1134.69C264.78 1136.55 259.077 1137.5 253.34 1137.52Z" fill="#30E057"/>
<path opacity="0.2" d="M271.212 1118.36V1120.76L253.616 1127.61C253.287 1127.73 252.928 1127.73 252.603 1127.59L235.739 1120.57V1118.36C235.74 1117.93 235.896 1117.51 236.173 1117.2C236.45 1116.9 236.825 1116.72 237.217 1116.72H269.734C270.125 1116.72 270.501 1116.9 270.778 1117.2C271.054 1117.51 271.211 1117.93 271.212 1118.36Z" fill="black"/>
<path d="M253.123 1124.83C252.901 1124.83 252.681 1124.79 252.474 1124.7L227.272 1114.2C226.916 1114.06 226.61 1113.79 226.395 1113.44C226.181 1113.09 226.069 1112.68 226.074 1112.25C226.08 1111.83 226.203 1111.42 226.427 1111.08C226.65 1110.74 226.964 1110.48 227.324 1110.35L251.035 1101.35C251.419 1101.21 251.833 1101.2 252.218 1101.34L278.682 1111.13C279.047 1111.26 279.366 1111.52 279.592 1111.87C279.819 1112.21 279.942 1112.63 279.945 1113.06C279.948 1113.48 279.831 1113.9 279.609 1114.25C279.387 1114.6 279.072 1114.86 278.709 1115.01L253.734 1124.71C253.538 1124.79 253.331 1124.83 253.123 1124.83Z" fill="#30E057"/>
<path d="M230.196 1124.1H229.457V1112.21H251.997V1113.03H230.196V1124.1Z" fill="#3F3D56"/>
<path d="M229.827 1126.56C230.643 1126.56 231.305 1125.82 231.305 1124.92C231.305 1124.01 230.643 1123.28 229.827 1123.28C229.01 1123.28 228.349 1124.01 228.349 1124.92C228.349 1125.82 229.01 1126.56 229.827 1126.56Z" fill="#3F3D56"/>
<path d="M438.175 1195.98C455.753 1195.98 470.003 1180.17 470.003 1160.68C470.003 1141.18 455.753 1125.37 438.175 1125.37C420.597 1125.37 406.348 1141.18 406.348 1160.68C406.348 1180.17 420.597 1195.98 438.175 1195.98Z" fill="#2F2E41"/>
<path d="M433.341 1188.38H423.672V1207.59H433.341V1188.38Z" fill="#2F2E41"/>
<path d="M452.679 1188.38H443.01V1207.59H452.679V1188.38Z" fill="#2F2E41"/>
<path d="M431.729 1211.17C436.18 1211.17 439.787 1209.67 439.787 1207.82C439.787 1205.97 436.18 1204.47 431.729 1204.47C427.279 1204.47 423.672 1205.97 423.672 1207.82C423.672 1209.67 427.279 1211.17 431.729 1211.17Z" fill="#2F2E41"/>
<path d="M451.067 1210.72C455.517 1210.72 459.125 1209.22 459.125 1207.37C459.125 1205.52 455.517 1204.02 451.067 1204.02C446.617 1204.02 443.01 1205.52 443.01 1207.37C443.01 1209.22 446.617 1210.72 451.067 1210.72Z" fill="#2F2E41"/>
<path d="M472.473 1145.25C479.366 1137.6 483.198 1129.45 481.033 1127.05C478.867 1124.65 471.524 1128.91 464.631 1136.56C457.738 1144.21 453.906 1152.36 456.071 1154.76C458.237 1157.16 465.58 1152.9 472.473 1145.25Z" fill="#2F2E41"/>
<path d="M409.767 1178.02C415.329 1169.13 417.799 1160.36 415.285 1158.42C412.77 1156.49 406.223 1162.12 400.661 1171C395.099 1179.89 392.629 1188.66 395.143 1190.6C397.658 1192.53 404.205 1186.9 409.767 1178.02Z" fill="#2F2E41"/>
<path d="M436.836 1167.74C442.844 1167.74 447.714 1162.34 447.714 1155.67C447.714 1149.01 442.844 1143.61 436.836 1143.61C430.829 1143.61 425.958 1149.01 425.958 1155.67C425.958 1162.34 430.829 1167.74 436.836 1167.74Z" fill="white"/>
<path d="M440.531 1155.6C442.534 1155.6 444.157 1153.8 444.157 1151.57C444.157 1149.35 442.534 1147.55 440.531 1147.55C438.529 1147.55 436.905 1149.35 436.905 1151.57C436.905 1153.8 438.529 1155.6 440.531 1155.6Z" fill="#3F3D56"/>
<path d="M449.878 1177.99C450.945 1182.25 447.058 1186.33 441.196 1187.11C435.335 1187.89 429.717 1185.06 428.65 1180.8L428.647 1180.78C427.585 1176.52 432.118 1175.01 437.981 1174.24C443.844 1173.46 448.817 1173.72 449.878 1177.99Z" fill="white"/>
<path d="M427.039 1139.9C421.79 1142.23 416.254 1143.68 410.617 1144.18C410.224 1144.21 409.832 1144.1 409.497 1143.87C409.163 1143.64 408.903 1143.3 408.754 1142.89L403.921 1129.56C403.739 1129.05 403.745 1128.49 403.937 1127.99C404.129 1127.49 404.492 1127.1 404.946 1126.89L435.115 1113.44C435.57 1113.24 436.079 1113.24 436.529 1113.45C436.98 1113.67 437.336 1114.07 437.519 1114.57L442.349 1127.9C442.498 1128.31 442.524 1128.76 442.423 1129.19C442.323 1129.61 442.101 1129.99 441.791 1130.27C437.326 1134.26 432.356 1137.51 427.039 1139.9Z" fill="#30E057"/>
<path opacity="0.2" d="M437.176 1114.73L437.984 1116.96L423.96 1130.59C423.697 1130.84 423.363 1130.98 423.015 1130.99L405.006 1131.45L404.264 1129.41C404.119 1129 404.124 1128.55 404.278 1128.15C404.431 1127.75 404.721 1127.44 405.084 1127.27L435.253 1113.82C435.617 1113.66 436.024 1113.66 436.384 1113.83C436.744 1114 437.029 1114.32 437.176 1114.73Z" fill="black"/>
<path d="M422.569 1128.21C422.363 1128.31 422.144 1128.36 421.923 1128.36L395.01 1129.05C394.63 1129.06 394.256 1128.94 393.94 1128.71C393.623 1128.47 393.38 1128.13 393.244 1127.74C393.107 1127.35 393.083 1126.91 393.176 1126.5C393.268 1126.09 393.472 1125.73 393.761 1125.45L412.734 1107.29C413.041 1107 413.426 1106.83 413.829 1106.8L441.674 1104.93C442.059 1104.9 442.441 1105.01 442.767 1105.23C443.094 1105.46 443.348 1105.8 443.494 1106.19C443.641 1106.59 443.672 1107.02 443.584 1107.44C443.496 1107.86 443.293 1108.23 443.003 1108.51L423.097 1127.85C422.94 1128.01 422.762 1128.13 422.569 1128.21Z" fill="#30E057"/>
<path d="M401.051 1137.02L400.366 1137.33L396.368 1126.3L417.281 1116.97L417.557 1117.73L397.329 1126.76L401.051 1137.02Z" fill="#3F3D56"/>
<path d="M400.984 1139.57C401.801 1139.57 402.462 1138.84 402.462 1137.94C402.462 1137.03 401.801 1136.3 400.984 1136.3C400.168 1136.3 399.506 1137.03 399.506 1137.94C399.506 1138.84 400.168 1139.57 400.984 1139.57Z" fill="#3F3D56"/>
<path d="M559.343 1077.27C554.546 1073.95 550.227 1069.84 546.533 1065.1C546.279 1064.76 546.126 1064.35 546.097 1063.91C546.068 1063.47 546.163 1063.04 546.371 1062.67L553.218 1050.47C553.477 1050.01 553.891 1049.68 554.368 1049.56C554.845 1049.43 555.347 1049.53 555.763 1049.81L583.367 1068.88C583.782 1069.16 584.078 1069.62 584.189 1070.15C584.3 1070.68 584.217 1071.24 583.959 1071.7L577.115 1083.89C576.905 1084.26 576.592 1084.55 576.222 1084.71C575.853 1084.88 575.446 1084.9 575.062 1084.79C569.518 1083.15 564.222 1080.62 559.343 1077.27Z" fill="#30E057"/>
<path opacity="0.2" d="M583.645 1071.48L582.5 1073.52L564.301 1069.02C563.962 1068.93 563.661 1068.71 563.45 1068.41L552.481 1052.56L553.532 1050.69C553.74 1050.32 554.071 1050.06 554.452 1049.96C554.833 1049.86 555.235 1049.93 555.568 1050.16L583.171 1069.22C583.503 1069.45 583.739 1069.82 583.828 1070.24C583.917 1070.67 583.851 1071.11 583.645 1071.48Z" fill="black"/>
<path d="M565.207 1066.37C565.019 1066.24 564.853 1066.07 564.718 1065.88L548.326 1042.19C548.094 1041.86 547.961 1041.45 547.945 1041.03C547.93 1040.61 548.032 1040.19 548.238 1039.84C548.444 1039.48 548.743 1039.21 549.096 1039.05C549.449 1038.89 549.837 1038.85 550.208 1038.95L574.624 1045.21C575.018 1045.31 575.371 1045.56 575.63 1045.9L593.433 1069.72C593.679 1070.05 593.826 1070.46 593.854 1070.88C593.881 1071.31 593.788 1071.73 593.587 1072.1C593.386 1072.46 593.087 1072.75 592.732 1072.92C592.377 1073.08 591.984 1073.12 591.608 1073.03L565.78 1066.63C565.577 1066.58 565.384 1066.49 565.207 1066.37Z" fill="#30E057"/>
<path d="M546.092 1052.31L545.465 1051.87L551.129 1041.79L570.263 1055L569.872 1055.69L551.365 1042.91L546.092 1052.31Z" fill="#3F3D56"/>
<path d="M545.388 1054.43C546.204 1054.43 546.866 1053.69 546.866 1052.79C546.866 1051.88 546.204 1051.15 545.388 1051.15C544.571 1051.15 543.91 1051.88 543.91 1052.79C543.91 1053.69 544.571 1054.43 545.388 1054.43Z" fill="#3F3D56"/>
<path d="M636.341 1155.81C653.919 1155.81 668.169 1140.01 668.169 1120.51C668.169 1101.01 653.919 1085.21 636.341 1085.21C618.764 1085.21 604.514 1101.01 604.514 1120.51C604.514 1140.01 618.764 1155.81 636.341 1155.81Z" fill="#2F2E41"/>
<path d="M658.406 1138.82L650.156 1144.41L659.19 1160.8L667.44 1155.21L658.406 1138.82Z" fill="#2F2E41"/>
<path d="M641.905 1150L633.655 1155.59L642.689 1171.99L650.939 1166.4L641.905 1150Z" fill="#2F2E41"/>
<path d="M662.246 1162.92C666.043 1160.35 668.416 1156.98 667.545 1155.4C666.675 1153.82 662.891 1154.63 659.094 1157.2C655.297 1159.78 652.924 1163.14 653.795 1164.72C654.665 1166.3 658.449 1165.49 662.246 1162.92Z" fill="#2F2E41"/>
<path d="M645.535 1173.72C649.332 1171.15 651.705 1167.78 650.834 1166.2C649.964 1164.63 646.18 1165.43 642.383 1168.01C638.586 1170.58 636.214 1173.95 637.084 1175.53C637.954 1177.1 641.738 1176.3 645.535 1173.72Z" fill="#2F2E41"/>
<path d="M618.446 1114.59C620.611 1112.19 616.779 1104.05 609.886 1096.39C602.993 1088.74 595.65 1084.49 593.485 1086.89C591.319 1089.29 595.151 1097.43 602.044 1105.09C608.937 1112.74 616.28 1116.99 618.446 1114.59Z" fill="#2F2E41"/>
<path d="M679.374 1150.43C681.888 1148.5 679.418 1139.72 673.856 1130.84C668.294 1121.96 661.747 1116.32 659.232 1118.26C656.718 1120.2 659.188 1128.97 664.75 1137.85C670.312 1146.74 676.859 1152.37 679.374 1150.43Z" fill="#2F2E41"/>
<path d="M626.595 1122.66C632.603 1122.66 637.473 1117.25 637.473 1110.59C637.473 1103.93 632.603 1098.53 626.595 1098.53C620.588 1098.53 615.718 1103.93 615.718 1110.59C615.718 1117.25 620.588 1122.66 626.595 1122.66Z" fill="white"/>
<path d="M622.9 1110.51C624.903 1110.51 626.526 1108.71 626.526 1106.49C626.526 1104.27 624.903 1102.47 622.9 1102.47C620.898 1102.47 619.274 1104.27 619.274 1106.49C619.274 1108.71 620.898 1110.51 622.9 1110.51Z" fill="#3F3D56"/>
<path d="M612.588 1130.72C610.525 1134.46 613.273 1139.54 618.726 1142.04C624.179 1144.55 630.272 1143.54 632.334 1139.79L632.342 1139.78C634.399 1136.03 630.403 1133.22 624.948 1130.72C619.493 1128.22 614.645 1126.97 612.588 1130.72Z" fill="white"/>
<path d="M625.662 1076.19C628.504 1063.49 641.049 1056.02 653.682 1059.5C666.315 1062.98 674.252 1076.09 671.41 1088.79C668.568 1101.48 659.139 1101.52 646.506 1098.04C633.873 1094.56 622.82 1088.88 625.662 1076.19Z" fill="#E6E6E6"/>
<path d="M736.31 1211.8H138.444C138.248 1211.8 138.06 1211.72 137.922 1211.56C137.783 1211.41 137.705 1211.2 137.705 1210.98C137.705 1210.77 137.783 1210.56 137.922 1210.4C138.06 1210.25 138.248 1210.16 138.444 1210.16H736.31C736.506 1210.16 736.694 1210.25 736.833 1210.4C736.972 1210.56 737.049 1210.77 737.049 1210.98C737.049 1211.2 736.972 1211.41 736.833 1211.56C736.694 1211.72 736.506 1211.8 736.31 1211.8Z" fill="#CBCBCB"/>
</g>
<defs>
<filter id="filter0_f_74_428" x="732.295" y="1031.31" width="282.295" height="282.295" filterUnits="userSpaceOnUse" color-interpolation-filters="sRGB">
<feFlood flood-opacity="0" result="BackgroundImageFix"/>
<feBlend mode="normal" in="SourceGraphic" in2="BackgroundImageFix" result="shape"/>
<feGaussianBlur stdDeviation="5" result="effect1_foregroundBlur_74_428"/>
</filter>
<filter id="filter1_f_74_428" x="880.492" y="915.902" width="282.295" height="282.295" filterUnits="userSpaceOnUse" color-interpolation-filters="sRGB">
<feFlood flood-opacity="0" result="BackgroundImageFix"/>
<feBlend mode="normal" in="SourceGraphic" in2="BackgroundImageFix" result="shape"/>
<feGaussianBlur stdDeviation="5" result="effect1_foregroundBlur_74_428"/>
</filter>
<filter id="filter2_f_74_428" x="927.705" y="1054.92" width="282.295" height="282.295" filterUnits="userSpaceOnUse" color-interpolation-filters="sRGB">
<feFlood flood-opacity="0" result="BackgroundImageFix"/>
<feBlend mode="normal" in="SourceGraphic" in2="BackgroundImageFix" result="shape"/>
<feGaussianBlur stdDeviation="5" result="effect1_foregroundBlur_74_428"/>
</filter>
<filter id="filter3_f_74_428" x="116.741" y="36.3271" width="282.347" height="282.346" filterUnits="userSpaceOnUse" color-interpolation-filters="sRGB">
<feFlood flood-opacity="0" result="BackgroundImageFix"/>
<feBlend mode="normal" in="SourceGraphic" in2="BackgroundImageFix" result="shape"/>
<feGaussianBlur stdDeviation="5" result="effect1_foregroundBlur_74_428"/>
</filter>
<filter id="filter4_f_74_428" x="227.624" y="143.231" width="282.347" height="282.346" filterUnits="userSpaceOnUse" color-interpolation-filters="sRGB">
<feFlood flood-opacity="0" result="BackgroundImageFix"/>
<feBlend mode="normal" in="SourceGraphic" in2="BackgroundImageFix" result="shape"/>
<feGaussianBlur stdDeviation="5" result="effect1_foregroundBlur_74_428"/>
</filter>
<filter id="filter5_f_74_428" x="74.4897" y="207.076" width="282.347" height="282.346" filterUnits="userSpaceOnUse" color-interpolation-filters="sRGB">
<feFlood flood-opacity="0" result="BackgroundImageFix"/>
<feBlend mode="normal" in="SourceGraphic" in2="BackgroundImageFix" result="shape"/>
<feGaussianBlur stdDeviation="5" result="effect1_foregroundBlur_74_428"/>
</filter>
<clipPath id="clip0_74_428">
<rect width="599.344" height="249.18" fill="white" transform="translate(137.705 962.623)"/>
</clipPath>
</defs>
</svg>
