<svg width="943" height="1024" viewBox="0 0 943 1024" fill="none" xmlns="http://www.w3.org/2000/svg">
<g clip-path="url(#clip0_128_14)">
<rect width="1133" height="1250" transform="translate(-149 -113)" fill="white"/>
<rect x="75" y="131" width="710" height="802" fill="white"/>
<g filter="url(#filter0_f_128_14)">
<ellipse cx="747.301" cy="983.673" rx="155.301" ry="156.209" fill="#22C55E" fill-opacity="0.78"/>
</g>
<g filter="url(#filter1_f_128_14)">
<ellipse cx="922.791" cy="846.209" rx="155.301" ry="156.209" fill="#39A331" fill-opacity="0.76"/>
</g>
<g filter="url(#filter2_f_128_14)">
<ellipse cx="879.301" cy="1002.21" rx="155.301" ry="156.209" fill="#22C55E" fill-opacity="0.71"/>
</g>
<g filter="url(#filter3_f_128_14)">
<ellipse cx="88.19" cy="83.1468" rx="123.736" ry="127.954" transform="rotate(28.142 88.19 83.1468)" fill="#22C55E" fill-opacity="0.71"/>
</g>
<g filter="url(#filter4_f_128_14)">
<ellipse cx="219.243" cy="121.147" rx="123.736" ry="127.954" transform="rotate(28.142 219.243 121.147)" fill="#39A331" fill-opacity="0.76"/>
</g>
<g filter="url(#filter5_f_128_14)">
<ellipse cx="77.2432" cy="240.147" rx="123.736" ry="127.954" transform="rotate(28.142 77.2432 240.147)" fill="#22C55E" fill-opacity="0.78"/>
</g>
<g clip-path="url(#clip1_128_14)">
<path d="M43.6806 919.27C44.9882 919.797 46.3921 919.929 47.757 919.653C49.122 919.377 50.402 918.703 51.4738 917.695C54.2034 915.067 55.0593 910.739 55.7555 906.73L57.8151 894.872L53.5031 898.278C50.402 900.727 47.2312 903.255 45.0842 906.802C42.9372 910.35 42.0006 915.193 43.7251 919.032" fill="#E6E6E6"/>
<path d="M44.3467 934.451C43.804 929.916 43.2456 925.321 43.6272 920.737C43.9654 916.666 45.0483 912.69 47.2528 909.429C48.423 907.702 49.8469 906.222 51.4605 905.055C51.8811 904.751 52.2684 905.516 51.8495 905.819C49.0575 907.843 46.898 910.831 45.6822 914.354C44.3395 918.271 44.124 922.541 44.3552 926.702C44.495 929.219 44.7921 931.719 45.0904 934.216C45.114 934.329 45.0993 934.448 45.0493 934.548C44.9993 934.649 44.9177 934.725 44.8211 934.759C44.7225 934.79 44.6175 934.775 44.5287 934.717C44.44 934.659 44.3747 934.563 44.347 934.451L44.3467 934.451Z" fill="#F2F2F2"/>
<path d="M48.2529 927.174C48.8136 928.151 49.5844 928.947 50.4911 929.484C51.3977 930.021 52.4097 930.281 53.4294 930.239C56.0505 930.096 58.2347 927.999 60.2008 926.007L66.0174 920.116L62.168 919.905C59.3996 919.753 56.5598 919.61 53.923 920.59C51.2862 921.571 48.8545 923.927 48.3724 927.057" fill="#E6E6E6"/>
<path d="M42.8124 937.059C45.4253 931.755 48.4558 925.862 53.8712 923.978C55.3768 923.456 56.9555 923.269 58.5224 923.427C59.0163 923.476 58.8929 924.349 58.4001 924.3C55.7736 924.05 53.1522 924.846 50.9772 926.553C48.9325 928.255 47.1991 930.4 45.8753 932.868C45.0303 934.344 44.2736 935.882 43.5168 937.419C43.275 937.91 42.5678 937.555 42.8124 937.059Z" fill="#F2F2F2"/>
<path d="M282.686 912.338C284.486 913.064 286.419 913.246 288.299 912.866C290.179 912.486 291.941 911.558 293.417 910.17C297.176 906.551 298.355 900.59 299.313 895.07L302.15 878.741L296.212 883.431C291.941 886.804 287.575 890.285 284.618 895.17C281.662 900.055 280.372 906.724 282.747 912.01" fill="#E6E6E6"/>
<path d="M283.602 933.243C282.855 926.998 282.086 920.671 282.612 914.359C283.077 908.752 284.569 903.278 287.604 898.787C289.216 896.408 291.177 894.37 293.399 892.764C293.978 892.345 294.511 893.397 293.934 893.815C290.09 896.602 287.116 900.718 285.442 905.569C283.593 910.963 283.296 916.843 283.614 922.573C283.807 926.038 284.216 929.481 284.627 932.919C284.659 933.075 284.639 933.239 284.57 933.378C284.501 933.517 284.389 933.62 284.256 933.668C284.12 933.71 283.975 933.689 283.853 933.609C283.731 933.53 283.641 933.398 283.603 933.243L283.602 933.243Z" fill="#F2F2F2"/>
<path d="M288.982 923.222C289.754 924.568 290.815 925.664 292.064 926.404C293.313 927.143 294.706 927.501 296.11 927.443C299.72 927.247 302.727 924.358 305.435 921.615L313.445 913.503L308.144 913.212C304.332 913.003 300.421 912.806 296.79 914.156C293.159 915.507 289.81 918.751 289.146 923.062" fill="#E6E6E6"/>
<path d="M281.49 936.834C285.088 929.531 289.261 921.415 296.718 918.821C298.792 918.102 300.966 917.845 303.123 918.062C303.803 918.13 303.634 919.332 302.955 919.265C299.338 918.921 295.728 920.016 292.733 922.367C289.851 924.617 287.607 927.746 285.707 931.064C284.544 933.096 283.502 935.214 282.46 937.33C282.127 938.006 281.153 937.518 281.49 936.834Z" fill="#F2F2F2"/>
<path d="M248.963 802.457C248.583 802.267 248.278 801.924 248.104 801.493C247.931 801.062 247.902 800.573 248.023 800.119C248.042 800.049 248.055 799.977 248.059 799.904C248.071 799.696 248.023 799.49 247.924 799.315C247.824 799.141 247.679 799.008 247.508 798.935C247.338 798.863 247.151 798.856 246.977 798.915C246.803 798.974 246.649 799.095 246.54 799.262C246.502 799.321 246.471 799.385 246.447 799.452C246.281 799.887 245.982 800.238 245.606 800.436C245.231 800.635 244.804 800.668 244.408 800.53C244.348 800.508 244.285 800.493 244.221 800.488C244.04 800.475 243.86 800.53 243.708 800.644C243.555 800.758 243.439 800.925 243.376 801.12C243.314 801.316 243.307 801.53 243.358 801.729C243.41 801.929 243.516 802.105 243.661 802.231C243.712 802.274 243.768 802.31 243.827 802.338C244.206 802.528 244.512 802.871 244.685 803.302C244.858 803.733 244.887 804.222 244.767 804.676C244.747 804.746 244.735 804.818 244.73 804.891C244.719 805.099 244.767 805.305 244.866 805.48C244.965 805.654 245.111 805.787 245.281 805.86C245.452 805.932 245.638 805.939 245.812 805.88C245.987 805.821 246.14 805.7 246.249 805.533C246.287 805.474 246.318 805.41 246.343 805.343C246.508 804.908 246.807 804.557 247.183 804.359C247.559 804.16 247.985 804.127 248.381 804.265C248.442 804.287 248.505 804.302 248.568 804.307C248.749 804.32 248.93 804.265 249.082 804.151C249.234 804.037 249.35 803.87 249.413 803.675C249.476 803.479 249.482 803.265 249.431 803.066C249.38 802.866 249.274 802.69 249.129 802.564C249.077 802.521 249.021 802.485 248.963 802.457Z" fill="#CBCBCB"/>
<path d="M281.089 888.269C280.71 888.079 280.405 887.736 280.231 887.305C280.058 886.874 280.029 886.385 280.15 885.931C280.169 885.861 280.182 885.789 280.186 885.716C280.197 885.508 280.15 885.302 280.05 885.127C279.951 884.953 279.805 884.819 279.635 884.747C279.465 884.675 279.278 884.668 279.104 884.727C278.93 884.785 278.776 884.907 278.667 885.073C278.629 885.132 278.598 885.196 278.574 885.264C278.408 885.699 278.109 886.049 277.733 886.248C277.358 886.447 276.931 886.48 276.535 886.342C276.475 886.319 276.412 886.305 276.348 886.3C276.167 886.287 275.987 886.342 275.835 886.456C275.682 886.57 275.566 886.737 275.503 886.932C275.441 887.128 275.434 887.341 275.485 887.541C275.537 887.741 275.643 887.917 275.788 888.042C275.839 888.086 275.895 888.122 275.954 888.15C276.333 888.339 276.639 888.682 276.812 889.113C276.985 889.545 277.014 890.034 276.894 890.488C276.874 890.557 276.862 890.629 276.857 890.702C276.846 890.91 276.893 891.117 276.993 891.291C277.092 891.466 277.238 891.599 277.408 891.671C277.579 891.743 277.765 891.751 277.939 891.692C278.114 891.633 278.267 891.512 278.376 891.345C278.414 891.286 278.445 891.222 278.47 891.155C278.635 890.719 278.934 890.369 279.31 890.17C279.686 889.972 280.112 889.938 280.508 890.077C280.569 890.099 280.631 890.113 280.695 890.119C280.876 890.132 281.057 890.077 281.209 889.963C281.361 889.849 281.477 889.682 281.54 889.486C281.603 889.291 281.609 889.077 281.558 888.877C281.507 888.677 281.401 888.502 281.256 888.376C281.204 888.333 281.148 888.297 281.089 888.269Z" fill="#F1F1F1"/>
<path d="M112.652 838.256C112.273 838.066 111.967 837.723 111.794 837.292C111.621 836.861 111.592 836.372 111.712 835.918C111.732 835.848 111.744 835.776 111.749 835.703C111.76 835.495 111.712 835.289 111.613 835.114C111.514 834.94 111.368 834.806 111.198 834.734C111.027 834.662 110.841 834.655 110.667 834.714C110.492 834.772 110.339 834.894 110.23 835.06C110.192 835.119 110.161 835.183 110.136 835.251C109.971 835.686 109.672 836.036 109.296 836.235C108.92 836.434 108.494 836.467 108.098 836.329C108.037 836.306 107.974 836.292 107.911 836.287C107.729 836.274 107.549 836.329 107.397 836.443C107.245 836.557 107.129 836.724 107.066 836.919C107.003 837.115 106.997 837.328 107.048 837.528C107.099 837.728 107.205 837.904 107.35 838.029C107.402 838.073 107.457 838.109 107.516 838.137C107.896 838.326 108.201 838.669 108.374 839.1C108.548 839.532 108.577 840.021 108.456 840.475C108.436 840.544 108.424 840.616 108.419 840.689C108.408 840.897 108.456 841.104 108.555 841.279C108.655 841.453 108.8 841.586 108.971 841.658C109.141 841.731 109.327 841.738 109.502 841.679C109.676 841.62 109.829 841.499 109.939 841.332C109.976 841.273 110.008 841.209 110.032 841.142C110.198 840.707 110.497 840.356 110.872 840.157C111.248 839.959 111.675 839.925 112.07 840.064C112.131 840.086 112.194 840.1 112.258 840.106C112.439 840.119 112.619 840.064 112.771 839.95C112.923 839.836 113.039 839.669 113.102 839.473C113.165 839.278 113.172 839.064 113.12 838.864C113.069 838.664 112.963 838.489 112.818 838.363C112.767 838.32 112.711 838.284 112.652 838.256Z" fill="#F1F1F1"/>
<path d="M182.921 807.481C184.442 807.481 185.674 806.067 185.674 804.323C185.674 802.578 184.442 801.164 182.921 801.164C181.4 801.164 180.167 802.578 180.167 804.323C180.167 806.067 181.4 807.481 182.921 807.481Z" fill="#F1F1F1"/>
<path d="M329.787 799.058C331.308 799.058 332.541 797.644 332.541 795.899C332.541 794.155 331.308 792.741 329.787 792.741C328.266 792.741 327.033 794.155 327.033 795.899C327.033 797.644 328.266 799.058 329.787 799.058Z" fill="#30E057"/>
<path d="M115.912 784.317C117.433 784.317 118.666 782.903 118.666 781.159C118.666 779.414 117.433 778 115.912 778C114.392 778 113.159 779.414 113.159 781.159C113.159 782.903 114.392 784.317 115.912 784.317Z" fill="#CBCBCB"/>
<path d="M105.323 927.876C116.239 927.876 125.089 917.725 125.089 905.203C125.089 892.681 116.239 882.53 105.323 882.53C94.4062 882.53 85.5566 892.681 85.5566 905.203C85.5566 917.725 94.4062 927.876 105.323 927.876Z" fill="#2F2E41"/>
<path d="M102.32 922.997H96.3154V935.338H102.32V922.997Z" fill="#2F2E41"/>
<path d="M114.33 922.997H108.325V935.338H114.33V922.997Z" fill="#2F2E41"/>
<path d="M101.32 937.634C104.083 937.634 106.324 936.67 106.324 935.482C106.324 934.293 104.083 933.329 101.32 933.329C98.5558 933.329 96.3154 934.293 96.3154 935.482C96.3154 936.67 98.5558 937.634 101.32 937.634Z" fill="#2F2E41"/>
<path d="M113.329 937.347C116.093 937.347 118.333 936.383 118.333 935.194C118.333 934.006 116.093 933.042 113.329 933.042C110.566 933.042 108.325 934.006 108.325 935.194C108.325 936.383 110.566 937.347 113.329 937.347Z" fill="#2F2E41"/>
<path d="M126.623 895.296C130.903 890.382 133.283 885.148 131.938 883.607C130.593 882.066 126.033 884.799 121.752 889.713C117.472 894.627 115.092 899.861 116.437 901.402C117.781 902.944 122.342 900.21 126.623 895.296Z" fill="#2F2E41"/>
<path d="M89.3905 902.981C90.7354 901.44 88.3554 896.207 84.0747 891.293C79.794 886.379 75.2336 883.645 73.8887 885.186C72.5438 886.728 74.9238 891.961 79.2045 896.875C83.4852 901.789 88.0456 904.523 89.3905 902.981Z" fill="#2F2E41"/>
<path d="M104.491 909.739C108.222 909.739 111.246 906.27 111.246 901.99C111.246 897.711 108.222 894.241 104.491 894.241C100.76 894.241 97.7354 897.711 97.7354 901.99C97.7354 906.27 100.76 909.739 104.491 909.739Z" fill="white"/>
<path d="M104.491 904.573C105.735 904.573 106.743 903.417 106.743 901.99C106.743 900.564 105.735 899.407 104.491 899.407C103.247 899.407 102.239 900.564 102.239 901.99C102.239 903.417 103.247 904.573 104.491 904.573Z" fill="#3F3D56"/>
<path d="M109.854 916.321C110.062 917.636 109.807 918.993 109.144 920.092C108.481 921.191 107.465 921.943 106.318 922.182C105.172 922.421 103.99 922.129 103.032 921.368C102.073 920.607 101.418 919.441 101.209 918.127L101.208 918.117C100.775 915.378 102.621 914.409 105.009 913.913C107.397 913.417 109.422 913.583 109.854 916.321Z" fill="white"/>
<path d="M124.704 928.999C124.26 928.999 123.833 929.202 123.518 929.563C123.204 929.924 123.027 930.413 123.026 930.924V934.944C123.027 935.455 123.204 935.944 123.518 936.305C123.833 936.666 124.26 936.869 124.704 936.869H151.705C152.15 936.869 152.576 936.666 152.891 936.305C153.206 935.944 153.382 935.455 153.383 934.944V930.924C153.382 930.413 153.206 929.924 152.891 929.563C152.576 929.202 152.15 928.999 151.705 928.999H124.704Z" fill="#E5E5E5"/>
<path d="M140.232 926.321C140.065 926.211 139.866 926.181 139.68 926.238C139.493 926.295 139.334 926.435 139.238 926.627L138.234 928.62L137.251 926.391C137.164 926.194 137.012 926.044 136.829 925.975C136.645 925.906 136.445 925.923 136.273 926.023C136.101 926.123 135.97 926.298 135.91 926.508C135.85 926.718 135.865 926.947 135.952 927.145L136.718 928.88H136.437V936.989H140.18V928.88H139.784L140.498 927.462C140.595 927.27 140.621 927.042 140.571 926.828C140.521 926.614 140.399 926.432 140.232 926.321Z" fill="#30E057"/>
<path d="M104.814 890.332C101.302 890.328 97.8104 889.716 94.4575 888.517C94.2246 888.431 94.0213 888.262 93.8769 888.035C93.7325 887.809 93.6542 887.535 93.6533 887.255V878.026C93.6537 877.677 93.7747 877.342 93.9898 877.096C94.2049 876.849 94.4965 876.71 94.8007 876.71H114.995C115.299 876.71 115.591 876.849 115.806 877.096C116.021 877.342 116.142 877.677 116.142 878.026V887.249C116.142 887.532 116.063 887.808 115.916 888.036C115.769 888.263 115.562 888.43 115.326 888.512C111.919 889.707 108.377 890.32 104.814 890.332Z" fill="#30E057"/>
<path opacity="0.2" d="M115.913 878.026V879.569L104.985 883.964C104.781 884.045 104.558 884.042 104.356 883.954L93.8828 879.442V878.026C93.8835 877.747 93.9804 877.48 94.1524 877.282C94.3244 877.085 94.5575 876.974 94.8007 876.973H114.995C115.238 876.974 115.471 877.085 115.643 877.282C115.815 877.48 115.912 877.747 115.913 878.026Z" fill="black"/>
<path d="M104.679 882.181C104.541 882.181 104.405 882.152 104.276 882.097L88.6249 875.356C88.4036 875.261 88.2134 875.089 88.0802 874.865C87.9471 874.641 87.8775 874.375 87.881 874.104C87.8845 873.833 87.9609 873.57 88.0997 873.351C88.2386 873.131 88.4332 872.966 88.6568 872.878L103.383 867.1C103.621 867.007 103.878 867.006 104.117 867.096L120.552 873.38C120.779 873.467 120.977 873.633 121.118 873.855C121.258 874.077 121.335 874.344 121.337 874.619C121.339 874.893 121.266 875.162 121.128 875.386C120.99 875.611 120.795 875.78 120.569 875.871L105.059 882.107C104.937 882.156 104.808 882.181 104.679 882.181Z" fill="#30E057"/>
<path d="M90.4404 881.711H89.9814V874.078H103.98V874.604H90.4404V881.711Z" fill="#3F3D56"/>
<path d="M90.2109 883.29C90.7178 883.29 91.1288 882.819 91.1288 882.237C91.1288 881.656 90.7178 881.185 90.2109 881.185C89.7039 881.185 89.293 881.656 89.293 882.237C89.293 882.819 89.7039 883.29 90.2109 883.29Z" fill="#3F3D56"/>
<path d="M219.604 927.876C230.52 927.876 239.37 917.725 239.37 905.203C239.37 892.681 230.52 882.53 219.604 882.53C208.687 882.53 199.837 892.681 199.837 905.203C199.837 917.725 208.687 927.876 219.604 927.876Z" fill="#2F2E41"/>
<path d="M216.601 922.997H210.596V935.338H216.601V922.997Z" fill="#2F2E41"/>
<path d="M228.611 922.997H222.606V935.338H228.611V922.997Z" fill="#2F2E41"/>
<path d="M215.6 937.634C218.363 937.634 220.604 936.67 220.604 935.482C220.604 934.293 218.363 933.329 215.6 933.329C212.836 933.329 210.596 934.293 210.596 935.482C210.596 936.67 212.836 937.634 215.6 937.634Z" fill="#2F2E41"/>
<path d="M227.61 937.347C230.374 937.347 232.614 936.383 232.614 935.194C232.614 934.006 230.374 933.042 227.61 933.042C224.846 933.042 222.606 934.006 222.606 935.194C222.606 936.383 224.846 937.347 227.61 937.347Z" fill="#2F2E41"/>
<path d="M240.903 895.296C245.184 890.382 247.564 885.148 246.219 883.607C244.874 882.066 240.314 884.8 236.033 889.714C231.752 894.628 229.372 899.861 230.717 901.402C232.062 902.944 236.623 900.21 240.903 895.296Z" fill="#2F2E41"/>
<path d="M201.961 916.341C205.415 910.635 206.949 905.001 205.387 903.757C203.826 902.513 199.76 906.131 196.306 911.837C192.851 917.543 191.317 923.177 192.879 924.421C194.441 925.665 198.507 922.047 201.961 916.341Z" fill="#2F2E41"/>
<path d="M218.772 909.739C222.503 909.739 225.527 906.27 225.527 901.99C225.527 897.711 222.503 894.241 218.772 894.241C215.041 894.241 212.016 897.711 212.016 901.99C212.016 906.27 215.041 909.739 218.772 909.739Z" fill="white"/>
<path d="M221.066 901.941C222.31 901.941 223.318 900.784 223.318 899.358C223.318 897.931 222.31 896.775 221.066 896.775C219.823 896.775 218.814 897.931 218.814 899.358C218.814 900.784 219.823 901.941 221.066 901.941Z" fill="#3F3D56"/>
<path d="M226.871 916.321C227.534 919.06 225.12 921.683 221.479 922.182C217.839 922.68 214.351 920.865 213.688 918.127L213.686 918.117C213.026 915.378 215.842 914.409 219.483 913.913C223.124 913.417 226.212 913.583 226.871 916.321Z" fill="white"/>
<path d="M212.687 891.859C209.427 893.358 205.989 894.285 202.488 894.607C202.244 894.627 202.001 894.558 201.793 894.409C201.585 894.261 201.424 894.041 201.332 893.78L198.33 885.218C198.217 884.894 198.22 884.532 198.34 884.211C198.459 883.89 198.684 883.636 198.966 883.506L217.703 874.864C217.985 874.734 218.301 874.738 218.581 874.875C218.86 875.012 219.082 875.271 219.195 875.594L222.195 884.152C222.287 884.414 222.303 884.704 222.241 884.978C222.179 885.252 222.041 885.496 221.849 885.673C219.076 888.239 215.989 890.324 212.687 891.859Z" fill="#30E057"/>
<path opacity="0.2" d="M218.983 875.692L219.484 877.124L210.775 885.878C210.612 886.041 210.404 886.133 210.188 886.138L199.004 886.434L198.543 885.12C198.453 884.86 198.456 884.571 198.551 884.314C198.647 884.058 198.827 883.855 199.052 883.75L217.788 875.108C218.014 875.005 218.267 875.008 218.491 875.118C218.714 875.227 218.891 875.434 218.983 875.692Z" fill="black"/>
<path d="M209.911 884.354C209.784 884.413 209.648 884.445 209.51 884.449L192.796 884.892C192.56 884.899 192.328 884.821 192.132 884.67C191.935 884.519 191.784 884.302 191.699 884.049C191.614 883.796 191.6 883.519 191.657 883.256C191.714 882.993 191.841 882.757 192.02 882.58L203.804 870.917C203.994 870.729 204.233 870.618 204.484 870.6L221.776 869.397C222.015 869.38 222.253 869.45 222.455 869.596C222.658 869.741 222.816 869.956 222.907 870.21C222.998 870.464 223.017 870.744 222.963 871.012C222.908 871.279 222.782 871.52 222.602 871.701L210.239 884.123C210.142 884.221 210.031 884.299 209.911 884.354Z" fill="#30E057"/>
<path d="M196.548 890.012L196.122 890.208L193.64 883.126L206.627 877.135L206.798 877.624L194.236 883.418L196.548 890.012Z" fill="#3F3D56"/>
<path d="M196.506 891.651C197.013 891.651 197.424 891.18 197.424 890.598C197.424 890.017 197.013 889.545 196.506 889.545C195.999 889.545 195.588 890.017 195.588 890.598C195.588 891.18 195.999 891.651 196.506 891.651Z" fill="#3F3D56"/>
<path d="M294.853 851.634C291.874 849.502 289.192 846.865 286.898 843.815C286.74 843.6 286.645 843.334 286.627 843.054C286.609 842.774 286.668 842.495 286.797 842.256L291.049 834.421C291.21 834.125 291.467 833.915 291.763 833.836C292.06 833.757 292.371 833.816 292.63 834L309.773 846.243C310.031 846.428 310.214 846.722 310.283 847.062C310.352 847.402 310.301 847.759 310.14 848.056L305.89 855.886C305.76 856.126 305.565 856.312 305.336 856.416C305.106 856.52 304.854 856.537 304.615 856.463C301.172 855.411 297.883 853.784 294.853 851.634Z" fill="#30E057"/>
<path opacity="0.2" d="M309.945 847.917L309.235 849.226L297.932 846.333C297.722 846.278 297.534 846.139 297.403 845.943L290.591 835.763L291.244 834.561C291.373 834.324 291.578 834.156 291.815 834.093C292.052 834.03 292.301 834.077 292.508 834.223L309.651 846.467C309.857 846.615 310.004 846.85 310.059 847.122C310.114 847.394 310.073 847.68 309.945 847.917Z" fill="black"/>
<path d="M298.495 844.633C298.378 844.55 298.275 844.443 298.191 844.318L288.011 829.106C287.867 828.891 287.784 828.63 287.774 828.36C287.765 828.089 287.828 827.821 287.956 827.593C288.084 827.365 288.27 827.188 288.489 827.086C288.708 826.984 288.949 826.962 289.179 827.023L304.343 831.045C304.588 831.111 304.807 831.266 304.968 831.487L316.024 846.786C316.177 846.997 316.268 847.258 316.285 847.532C316.302 847.806 316.244 848.079 316.119 848.313C315.995 848.547 315.809 848.731 315.589 848.838C315.368 848.945 315.124 848.97 314.891 848.91L298.851 844.8C298.725 844.768 298.604 844.711 298.495 844.633Z" fill="#30E057"/>
<path d="M286.624 835.602L286.234 835.324L289.751 828.844L301.635 837.331L301.392 837.777L289.898 829.569L286.624 835.602Z" fill="#3F3D56"/>
<path d="M286.186 836.963C286.693 836.963 287.104 836.491 287.104 835.91C287.104 835.328 286.693 834.857 286.186 834.857C285.68 834.857 285.269 835.328 285.269 835.91C285.269 836.491 285.68 836.963 286.186 836.963Z" fill="#3F3D56"/>
<path d="M342.672 902.08C353.588 902.08 362.438 891.929 362.438 879.407C362.438 866.885 353.588 856.734 342.672 856.734C331.755 856.734 322.906 866.885 322.906 879.407C322.906 891.929 331.755 902.08 342.672 902.08Z" fill="#2F2E41"/>
<path d="M356.375 891.163L351.251 894.755L356.861 905.285L361.985 901.693L356.375 891.163Z" fill="#2F2E41"/>
<path d="M346.127 898.347L341.003 901.939L346.614 912.469L351.738 908.877L346.127 898.347Z" fill="#2F2E41"/>
<path d="M358.759 906.646C361.117 904.993 362.591 902.83 362.05 901.816C361.51 900.801 359.16 901.319 356.802 902.972C354.444 904.625 352.97 906.788 353.511 907.802C354.051 908.817 356.401 908.299 358.759 906.646Z" fill="#2F2E41"/>
<path d="M348.381 913.585C350.739 911.931 352.213 909.769 351.673 908.755C351.132 907.74 348.782 908.258 346.424 909.911C344.066 911.564 342.592 913.727 343.133 914.741C343.673 915.756 346.023 915.238 348.381 913.585Z" fill="#2F2E41"/>
<path d="M331.558 875.606C332.903 874.064 330.523 868.831 326.242 863.917C321.962 859.003 317.401 856.269 316.056 857.811C314.711 859.352 317.091 864.585 321.372 869.499C325.653 874.413 330.213 877.147 331.558 875.606Z" fill="#2F2E41"/>
<path d="M369.397 898.625C370.958 897.381 369.424 891.747 365.97 886.041C362.516 880.335 358.45 876.717 356.888 877.961C355.327 879.205 356.861 884.839 360.315 890.545C363.769 896.251 367.835 899.869 369.397 898.625Z" fill="#2F2E41"/>
<path d="M336.619 880.784C340.35 880.784 343.375 877.315 343.375 873.035C343.375 868.756 340.35 865.286 336.619 865.286C332.888 865.286 329.864 868.756 329.864 873.035C329.864 877.315 332.888 880.784 336.619 880.784Z" fill="white"/>
<path d="M334.325 872.986C335.568 872.986 336.576 871.83 336.576 870.403C336.576 868.977 335.568 867.82 334.325 867.82C333.081 867.82 332.073 868.977 332.073 870.403C332.073 871.83 333.081 872.986 334.325 872.986Z" fill="#3F3D56"/>
<path d="M327.92 885.961C326.639 888.369 328.346 891.626 331.732 893.236C335.119 894.846 338.902 894.2 340.183 891.792L340.188 891.784C341.466 889.375 338.984 887.572 335.596 885.965C332.209 884.357 329.198 883.552 327.92 885.961Z" fill="white"/>
<path d="M336.04 850.938C337.805 842.785 345.596 837.987 353.441 840.222C361.287 842.456 366.216 850.877 364.451 859.031C362.686 867.184 356.83 867.21 348.985 864.975C341.139 862.741 334.275 859.092 336.04 850.938Z" fill="#E6E6E6"/>
<path d="M404.756 938.041H33.459C33.3372 938.041 33.2205 937.986 33.1344 937.887C33.0484 937.788 33 937.655 33 937.515C33 937.375 33.0484 937.241 33.1344 937.143C33.2205 937.044 33.3372 936.989 33.459 936.989H404.756C404.878 936.989 404.995 937.044 405.081 937.143C405.167 937.241 405.215 937.375 405.215 937.515C405.215 937.655 405.167 937.788 405.081 937.887C404.995 937.986 404.878 938.041 404.756 938.041Z" fill="#CBCBCB"/>
</g>
</g>
<defs>
<filter id="filter0_f_128_14" x="582" y="817.464" width="330.602" height="332.418" filterUnits="userSpaceOnUse" color-interpolation-filters="sRGB">
<feFlood flood-opacity="0" result="BackgroundImageFix"/>
<feBlend mode="normal" in="SourceGraphic" in2="BackgroundImageFix" result="shape"/>
<feGaussianBlur stdDeviation="5" result="effect1_foregroundBlur_128_14"/>
</filter>
<filter id="filter1_f_128_14" x="757.49" y="680" width="330.602" height="332.418" filterUnits="userSpaceOnUse" color-interpolation-filters="sRGB">
<feFlood flood-opacity="0" result="BackgroundImageFix"/>
<feBlend mode="normal" in="SourceGraphic" in2="BackgroundImageFix" result="shape"/>
<feGaussianBlur stdDeviation="5" result="effect1_foregroundBlur_128_14"/>
</filter>
<filter id="filter2_f_128_14" x="714" y="836" width="330.602" height="332.418" filterUnits="userSpaceOnUse" color-interpolation-filters="sRGB">
<feFlood flood-opacity="0" result="BackgroundImageFix"/>
<feBlend mode="normal" in="SourceGraphic" in2="BackgroundImageFix" result="shape"/>
<feGaussianBlur stdDeviation="5" result="effect1_foregroundBlur_128_14"/>
</filter>
<filter id="filter3_f_128_14" x="-46.5195" y="-53.907" width="269.419" height="274.108" filterUnits="userSpaceOnUse" color-interpolation-filters="sRGB">
<feFlood flood-opacity="0" result="BackgroundImageFix"/>
<feBlend mode="normal" in="SourceGraphic" in2="BackgroundImageFix" result="shape"/>
<feGaussianBlur stdDeviation="5" result="effect1_foregroundBlur_128_14"/>
</filter>
<filter id="filter4_f_128_14" x="84.5337" y="-15.907" width="269.419" height="274.108" filterUnits="userSpaceOnUse" color-interpolation-filters="sRGB">
<feFlood flood-opacity="0" result="BackgroundImageFix"/>
<feBlend mode="normal" in="SourceGraphic" in2="BackgroundImageFix" result="shape"/>
<feGaussianBlur stdDeviation="5" result="effect1_foregroundBlur_128_14"/>
</filter>
<filter id="filter5_f_128_14" x="-57.4663" y="103.093" width="269.419" height="274.108" filterUnits="userSpaceOnUse" color-interpolation-filters="sRGB">
<feFlood flood-opacity="0" result="BackgroundImageFix"/>
<feBlend mode="normal" in="SourceGraphic" in2="BackgroundImageFix" result="shape"/>
<feGaussianBlur stdDeviation="5" result="effect1_foregroundBlur_128_14"/>
</filter>
<clipPath id="clip0_128_14">
<rect width="943" height="1024" fill="white"/>
</clipPath>
<clipPath id="clip1_128_14">
<rect width="372.215" height="160.042" fill="white" transform="translate(33 778)"/>
</clipPath>
</defs>
</svg>
