<svg width="2014" height="1984" viewBox="0 0 2014 1984" fill="none" xmlns="http://www.w3.org/2000/svg">
<g clip-path="url(#clip0_122_488)">
<path d="M140.913 1770.72C142.493 1771.4 144.191 1771.57 145.841 1771.22C147.491 1770.86 149.039 1769.99 150.334 1768.68C153.634 1765.28 154.669 1759.69 155.511 1754.5L158.001 1739.16L152.788 1743.57C149.039 1746.74 145.205 1750.01 142.61 1754.6C140.014 1759.18 138.882 1765.45 140.966 1770.41" fill="#E6E6E6"/>
<path d="M141.718 1790.36C141.062 1784.49 140.386 1778.55 140.848 1772.62C141.257 1767.35 142.566 1762.21 145.231 1757.99C146.646 1755.76 148.367 1753.84 150.318 1752.34C150.827 1751.94 151.295 1752.93 150.788 1753.32C147.413 1755.94 144.802 1759.81 143.332 1764.36C141.709 1769.43 141.448 1774.95 141.728 1780.33C141.897 1783.59 142.256 1786.82 142.617 1790.05C142.645 1790.2 142.628 1790.35 142.567 1790.48C142.507 1790.61 142.408 1790.71 142.291 1790.75C142.172 1790.79 142.045 1790.77 141.938 1790.7C141.83 1790.62 141.751 1790.5 141.718 1790.36L141.718 1790.36Z" fill="#F2F2F2"/>
<path d="M146.44 1780.94C147.118 1782.21 148.05 1783.24 149.146 1783.93C150.242 1784.63 151.466 1784.96 152.699 1784.91C155.867 1784.72 158.508 1782.01 160.885 1779.43L167.917 1771.82L163.263 1771.54C159.917 1771.34 156.483 1771.16 153.295 1772.43C150.108 1773.7 147.168 1776.74 146.585 1780.79" fill="#E6E6E6"/>
<path d="M139.863 1793.73C143.022 1786.87 146.686 1779.25 153.233 1776.81C155.053 1776.13 156.962 1775.89 158.856 1776.1C159.453 1776.16 159.304 1777.29 158.708 1777.23C155.533 1776.9 152.364 1777.93 149.734 1780.14C147.262 1782.34 145.166 1785.12 143.566 1788.31C142.544 1790.22 141.63 1792.21 140.715 1794.19C140.422 1794.83 139.567 1794.37 139.863 1793.73Z" fill="#F2F2F2"/>
<path d="M429.865 1761.75C432.041 1762.69 434.379 1762.93 436.651 1762.44C438.924 1761.95 441.055 1760.75 442.839 1758.95C447.383 1754.27 448.808 1746.56 449.967 1739.42L453.396 1718.3L446.217 1724.37C441.055 1728.73 435.776 1733.23 432.201 1739.55C428.627 1745.87 427.068 1754.49 429.939 1761.33" fill="#E6E6E6"/>
<path d="M430.973 1788.79C430.069 1780.72 429.139 1772.53 429.775 1764.37C430.338 1757.12 432.141 1750.04 435.811 1744.23C437.759 1741.15 440.13 1738.51 442.816 1736.44C443.516 1735.9 444.161 1737.26 443.464 1737.8C438.815 1741.4 435.22 1746.73 433.196 1753C430.961 1759.98 430.602 1767.58 430.987 1774.99C431.22 1779.48 431.714 1783.93 432.211 1788.37C432.25 1788.58 432.226 1788.79 432.142 1788.97C432.059 1789.15 431.923 1789.28 431.762 1789.34C431.598 1789.4 431.423 1789.37 431.276 1789.27C431.128 1789.16 431.019 1788.99 430.973 1788.79L430.973 1788.79Z" fill="#F2F2F2"/>
<path d="M437.477 1775.83C438.41 1777.57 439.693 1778.99 441.203 1779.95C442.712 1780.9 444.397 1781.37 446.094 1781.29C450.458 1781.04 454.095 1777.3 457.368 1773.75L467.051 1763.26L460.643 1762.89C456.034 1762.61 451.306 1762.36 446.916 1764.11C442.526 1765.85 438.478 1770.05 437.675 1775.62" fill="#E6E6E6"/>
<path d="M428.419 1793.44C432.769 1783.99 437.814 1773.5 446.83 1770.14C449.337 1769.21 451.965 1768.88 454.573 1769.16C455.396 1769.25 455.19 1770.8 454.37 1770.71C449.997 1770.27 445.633 1771.69 442.012 1774.73C438.527 1777.64 435.814 1781.68 433.518 1785.97C432.111 1788.6 430.851 1791.34 429.592 1794.08C429.189 1794.95 428.012 1794.32 428.419 1793.44Z" fill="#F2F2F2"/>
<path d="M389.094 1619.63C388.635 1619.39 388.266 1618.94 388.056 1618.39C387.847 1617.83 387.812 1617.2 387.958 1616.61C387.981 1616.52 387.996 1616.43 388.002 1616.33C388.016 1616.06 387.958 1615.8 387.838 1615.57C387.718 1615.34 387.542 1615.17 387.336 1615.08C387.129 1614.98 386.904 1614.98 386.694 1615.05C386.483 1615.13 386.298 1615.28 386.165 1615.5C386.12 1615.58 386.082 1615.66 386.052 1615.75C385.852 1616.31 385.491 1616.76 385.037 1617.02C384.582 1617.28 384.067 1617.32 383.588 1617.14C383.515 1617.11 383.439 1617.09 383.362 1617.09C383.143 1617.07 382.925 1617.14 382.741 1617.29C382.557 1617.44 382.417 1617.65 382.341 1617.9C382.264 1618.16 382.257 1618.43 382.319 1618.69C382.381 1618.95 382.509 1619.18 382.684 1619.34C382.746 1619.4 382.814 1619.44 382.885 1619.48C383.344 1619.72 383.713 1620.17 383.922 1620.73C384.132 1621.28 384.167 1621.92 384.021 1622.5C383.997 1622.59 383.983 1622.69 383.977 1622.78C383.963 1623.05 384.021 1623.32 384.141 1623.54C384.261 1623.77 384.437 1623.94 384.643 1624.03C384.85 1624.13 385.075 1624.14 385.285 1624.06C385.496 1623.98 385.681 1623.83 385.814 1623.61C385.859 1623.54 385.897 1623.45 385.927 1623.37C386.127 1622.8 386.488 1622.35 386.942 1622.09C387.397 1621.84 387.912 1621.79 388.391 1621.97C388.464 1622 388.54 1622.02 388.617 1622.03C388.836 1622.04 389.054 1621.97 389.238 1621.82C389.422 1621.68 389.562 1621.46 389.638 1621.21C389.714 1620.96 389.722 1620.68 389.66 1620.42C389.598 1620.16 389.47 1619.93 389.295 1619.77C389.232 1619.72 389.165 1619.67 389.094 1619.63Z" fill="#CBCBCB"/>
<path d="M427.935 1730.62C427.476 1730.38 427.107 1729.93 426.897 1729.38C426.688 1728.82 426.653 1728.19 426.799 1727.6C426.822 1727.51 426.837 1727.42 426.843 1727.32C426.856 1727.05 426.799 1726.79 426.679 1726.56C426.559 1726.33 426.382 1726.16 426.176 1726.07C425.97 1725.98 425.745 1725.97 425.534 1726.04C425.324 1726.12 425.138 1726.27 425.006 1726.49C424.961 1726.57 424.923 1726.65 424.893 1726.74C424.693 1727.3 424.332 1727.75 423.877 1728.01C423.423 1728.27 422.907 1728.31 422.429 1728.13C422.355 1728.1 422.28 1728.08 422.203 1728.08C421.983 1728.06 421.766 1728.13 421.582 1728.28C421.398 1728.43 421.257 1728.64 421.181 1728.89C421.105 1729.15 421.098 1729.42 421.16 1729.68C421.222 1729.94 421.35 1730.17 421.525 1730.33C421.587 1730.39 421.655 1730.43 421.726 1730.47C422.185 1730.71 422.554 1731.16 422.763 1731.72C422.973 1732.27 423.008 1732.91 422.862 1733.49C422.838 1733.58 422.823 1733.68 422.818 1733.77C422.804 1734.04 422.862 1734.31 422.982 1734.53C423.102 1734.76 423.278 1734.93 423.484 1735.02C423.69 1735.12 423.915 1735.13 424.126 1735.05C424.337 1734.97 424.522 1734.82 424.654 1734.6C424.7 1734.53 424.738 1734.44 424.768 1734.36C424.967 1733.79 425.329 1733.34 425.783 1733.08C426.238 1732.83 426.753 1732.78 427.232 1732.96C427.305 1732.99 427.381 1733.01 427.458 1733.02C427.677 1733.03 427.895 1732.96 428.079 1732.81C428.263 1732.67 428.403 1732.45 428.479 1732.2C428.555 1731.95 428.563 1731.67 428.501 1731.41C428.439 1731.15 428.311 1730.92 428.136 1730.76C428.073 1730.71 428.006 1730.66 427.935 1730.62Z" fill="#F1F1F1"/>
<path d="M224.298 1665.94C223.839 1665.69 223.47 1665.25 223.26 1664.69C223.051 1664.13 223.015 1663.5 223.161 1662.91C223.185 1662.82 223.2 1662.73 223.206 1662.63C223.219 1662.37 223.162 1662.1 223.041 1661.87C222.921 1661.65 222.745 1661.47 222.539 1661.38C222.333 1661.29 222.108 1661.28 221.897 1661.35C221.686 1661.43 221.501 1661.59 221.369 1661.8C221.323 1661.88 221.285 1661.96 221.256 1662.05C221.056 1662.61 220.694 1663.07 220.24 1663.32C219.786 1663.58 219.27 1663.62 218.792 1663.44C218.718 1663.41 218.642 1663.4 218.565 1663.39C218.346 1663.37 218.128 1663.44 217.945 1663.59C217.761 1663.74 217.62 1663.95 217.544 1664.21C217.468 1664.46 217.46 1664.74 217.522 1664.99C217.584 1665.25 217.712 1665.48 217.888 1665.64C217.95 1665.7 218.017 1665.75 218.089 1665.78C218.547 1666.03 218.917 1666.47 219.126 1667.03C219.336 1667.59 219.371 1668.22 219.225 1668.81C219.201 1668.9 219.186 1668.99 219.18 1669.08C219.167 1669.35 219.225 1669.62 219.345 1669.85C219.465 1670.07 219.641 1670.24 219.847 1670.34C220.053 1670.43 220.278 1670.44 220.489 1670.36C220.7 1670.29 220.885 1670.13 221.017 1669.91C221.063 1669.84 221.101 1669.76 221.13 1669.67C221.33 1669.11 221.692 1668.65 222.146 1668.4C222.6 1668.14 223.116 1668.1 223.595 1668.27C223.668 1668.3 223.744 1668.32 223.821 1668.33C224.04 1668.35 224.258 1668.27 224.442 1668.13C224.626 1667.98 224.766 1667.76 224.842 1667.51C224.918 1667.26 224.926 1666.98 224.864 1666.72C224.802 1666.46 224.674 1666.24 224.498 1666.07C224.436 1666.02 224.369 1665.97 224.298 1665.94Z" fill="#F1F1F1"/>
<path d="M309.251 1626.13C311.089 1626.13 312.58 1624.3 312.58 1622.05C312.58 1619.79 311.089 1617.96 309.251 1617.96C307.412 1617.96 305.921 1619.79 305.921 1622.05C305.921 1624.3 307.412 1626.13 309.251 1626.13Z" fill="#F1F1F1"/>
<path d="M486.809 1615.24C488.648 1615.24 490.138 1613.41 490.138 1611.15C490.138 1608.89 488.648 1607.07 486.809 1607.07C484.971 1607.07 483.48 1608.89 483.48 1611.15C483.48 1613.41 484.971 1615.24 486.809 1615.24Z" fill="#30E057"/>
<path d="M228.239 1596.17C230.078 1596.17 231.569 1594.34 231.569 1592.09C231.569 1589.83 230.078 1588 228.239 1588C226.401 1588 224.91 1589.83 224.91 1592.09C224.91 1594.34 226.401 1596.17 228.239 1596.17Z" fill="#CBCBCB"/>
<path d="M215.436 1781.85C228.634 1781.85 239.333 1768.72 239.333 1752.53C239.333 1736.33 228.634 1723.2 215.436 1723.2C202.239 1723.2 191.54 1736.33 191.54 1752.53C191.54 1768.72 202.239 1781.85 215.436 1781.85Z" fill="#2F2E41"/>
<path d="M211.807 1775.54H204.547V1791.5H211.807V1775.54Z" fill="#2F2E41"/>
<path d="M226.326 1775.54H219.066V1791.5H226.326V1775.54Z" fill="#2F2E41"/>
<path d="M210.597 1794.47C213.938 1794.47 216.647 1793.23 216.647 1791.69C216.647 1790.15 213.938 1788.9 210.597 1788.9C207.255 1788.9 204.547 1790.15 204.547 1791.69C204.547 1793.23 207.255 1794.47 210.597 1794.47Z" fill="#2F2E41"/>
<path d="M225.116 1794.1C228.457 1794.1 231.166 1792.86 231.166 1791.32C231.166 1789.78 228.457 1788.53 225.116 1788.53C221.775 1788.53 219.066 1789.78 219.066 1791.32C219.066 1792.86 221.775 1794.1 225.116 1794.1Z" fill="#2F2E41"/>
<path d="M241.188 1739.71C246.363 1733.36 249.24 1726.59 247.614 1724.59C245.989 1722.6 240.475 1726.14 235.3 1732.49C230.125 1738.85 227.247 1745.62 228.873 1747.61C230.499 1749.6 236.013 1746.07 241.188 1739.71Z" fill="#2F2E41"/>
<path d="M196.175 1749.65C197.801 1747.66 194.924 1740.89 189.748 1734.53C184.573 1728.18 179.06 1724.64 177.434 1726.64C175.808 1728.63 178.685 1735.4 183.86 1741.75C189.036 1748.11 194.549 1751.65 196.175 1749.65Z" fill="#2F2E41"/>
<path d="M214.431 1758.39C218.942 1758.39 222.598 1753.91 222.598 1748.37C222.598 1742.84 218.942 1738.35 214.431 1738.35C209.92 1738.35 206.264 1742.84 206.264 1748.37C206.264 1753.91 209.92 1758.39 214.431 1758.39Z" fill="white"/>
<path d="M214.431 1751.71C215.934 1751.71 217.153 1750.22 217.153 1748.37C217.153 1746.53 215.934 1745.03 214.431 1745.03C212.927 1745.03 211.708 1746.53 211.708 1748.37C211.708 1750.22 212.927 1751.71 214.431 1751.71Z" fill="#3F3D56"/>
<path d="M220.915 1766.91C221.167 1768.61 220.858 1770.36 220.057 1771.78C219.255 1773.2 218.026 1774.18 216.64 1774.49C215.254 1774.8 213.825 1774.42 212.667 1773.43C211.508 1772.45 210.716 1770.94 210.463 1769.24L210.462 1769.23C209.939 1765.69 212.171 1764.43 215.057 1763.79C217.944 1763.15 220.392 1763.36 220.915 1766.91Z" fill="white"/>
<path d="M238.869 1783.3C238.331 1783.3 237.815 1783.57 237.435 1784.03C237.054 1784.5 236.84 1785.13 236.84 1785.79V1790.99C236.84 1791.65 237.054 1792.29 237.435 1792.75C237.815 1793.22 238.331 1793.48 238.869 1793.48H271.512C272.049 1793.48 272.565 1793.22 272.945 1792.75C273.326 1792.29 273.54 1791.65 273.54 1790.99V1785.79C273.54 1785.13 273.326 1784.5 272.945 1784.03C272.565 1783.57 272.049 1783.3 271.512 1783.3H238.869Z" fill="#E5E5E5"/>
<path d="M257.641 1779.84C257.439 1779.7 257.199 1779.66 256.973 1779.73C256.748 1779.81 256.556 1779.99 256.439 1780.24L255.226 1782.81L254.037 1779.93C253.932 1779.68 253.748 1779.48 253.527 1779.39C253.305 1779.3 253.063 1779.33 252.855 1779.46C252.647 1779.58 252.489 1779.81 252.416 1780.08C252.344 1780.35 252.362 1780.65 252.467 1780.91L253.392 1783.15H253.053V1793.64H257.578V1783.15H257.1L257.963 1781.32C258.08 1781.07 258.111 1780.77 258.051 1780.5C257.99 1780.22 257.843 1779.98 257.641 1779.84Z" fill="#30E057"/>
<path d="M214.821 1733.29C210.575 1733.29 206.354 1732.49 202.3 1730.94C202.019 1730.83 201.773 1730.61 201.598 1730.32C201.424 1730.03 201.329 1729.67 201.328 1729.31V1717.37C201.329 1716.92 201.475 1716.49 201.735 1716.17C201.995 1715.85 202.348 1715.67 202.715 1715.67H227.13C227.497 1715.67 227.85 1715.85 228.11 1716.17C228.37 1716.49 228.516 1716.92 228.517 1717.37V1729.3C228.517 1729.67 228.421 1730.03 228.243 1730.32C228.066 1730.62 227.815 1730.83 227.53 1730.94C223.41 1732.48 219.128 1733.28 214.821 1733.29Z" fill="#30E057"/>
<path opacity="0.2" d="M228.239 1717.38V1719.37L215.028 1725.06C214.781 1725.16 214.512 1725.16 214.268 1725.04L201.605 1719.21V1717.38C201.606 1717.01 201.724 1716.67 201.931 1716.41C202.139 1716.16 202.421 1716.01 202.715 1716.01H227.13C227.424 1716.01 227.705 1716.16 227.913 1716.41C228.121 1716.67 228.238 1717.01 228.239 1717.38Z" fill="black"/>
<path d="M214.658 1722.75C214.492 1722.75 214.327 1722.71 214.171 1722.64L195.249 1713.92C194.982 1713.8 194.752 1713.58 194.591 1713.29C194.43 1713 194.346 1712.65 194.35 1712.3C194.354 1711.95 194.446 1711.61 194.614 1711.33C194.782 1711.04 195.017 1710.83 195.288 1710.72L213.091 1703.24C213.379 1703.12 213.69 1703.12 213.979 1703.24L233.849 1711.37C234.123 1711.48 234.362 1711.69 234.532 1711.98C234.702 1712.27 234.795 1712.61 234.797 1712.97C234.799 1713.32 234.711 1713.67 234.544 1713.96C234.378 1714.25 234.142 1714.47 233.869 1714.59L215.117 1722.65C214.97 1722.72 214.815 1722.75 214.658 1722.75Z" fill="#30E057"/>
<path d="M197.444 1722.14H196.889V1712.27H213.813V1712.95H197.444V1722.14Z" fill="#3F3D56"/>
<path d="M197.167 1724.18C197.78 1724.18 198.277 1723.57 198.277 1722.82C198.277 1722.07 197.78 1721.46 197.167 1721.46C196.554 1721.46 196.057 1722.07 196.057 1722.82C196.057 1723.57 196.554 1724.18 197.167 1724.18Z" fill="#3F3D56"/>
<path d="M353.599 1781.85C366.797 1781.85 377.496 1768.72 377.496 1752.53C377.496 1736.33 366.797 1723.2 353.599 1723.2C340.402 1723.2 329.703 1736.33 329.703 1752.53C329.703 1768.72 340.402 1781.85 353.599 1781.85Z" fill="#2F2E41"/>
<path d="M349.969 1775.54H342.709V1791.5H349.969V1775.54Z" fill="#2F2E41"/>
<path d="M364.489 1775.54H357.229V1791.5H364.489V1775.54Z" fill="#2F2E41"/>
<path d="M348.759 1794.47C352.101 1794.47 354.809 1793.23 354.809 1791.69C354.809 1790.15 352.101 1788.9 348.759 1788.9C345.418 1788.9 342.709 1790.15 342.709 1791.69C342.709 1793.23 345.418 1794.47 348.759 1794.47Z" fill="#2F2E41"/>
<path d="M363.279 1794.1C366.62 1794.1 369.329 1792.86 369.329 1791.32C369.329 1789.78 366.62 1788.53 363.279 1788.53C359.938 1788.53 357.229 1789.78 357.229 1791.32C357.229 1792.86 359.938 1794.1 363.279 1794.1Z" fill="#2F2E41"/>
<path d="M379.35 1739.71C384.526 1733.36 387.403 1726.59 385.777 1724.59C384.151 1722.6 378.638 1726.14 373.462 1732.49C368.287 1738.85 365.41 1745.62 367.036 1747.61C368.662 1749.6 374.175 1746.07 379.35 1739.71Z" fill="#2F2E41"/>
<path d="M332.269 1766.93C336.445 1759.55 338.3 1752.27 336.412 1750.66C334.524 1749.05 329.608 1753.73 325.432 1761.11C321.256 1768.49 319.402 1775.77 321.29 1777.38C323.178 1778.99 328.093 1774.31 332.269 1766.93Z" fill="#2F2E41"/>
<path d="M352.594 1758.39C357.105 1758.39 360.761 1753.91 360.761 1748.37C360.761 1742.84 357.105 1738.35 352.594 1738.35C348.083 1738.35 344.427 1742.84 344.427 1748.37C344.427 1753.91 348.083 1758.39 352.594 1758.39Z" fill="white"/>
<path d="M355.368 1748.31C356.872 1748.31 358.09 1746.81 358.09 1744.97C358.09 1743.12 356.872 1741.63 355.368 1741.63C353.864 1741.63 352.646 1743.12 352.646 1744.97C352.646 1746.81 353.864 1748.31 355.368 1748.31Z" fill="#3F3D56"/>
<path d="M362.386 1766.91C363.187 1770.45 360.269 1773.84 355.868 1774.49C351.466 1775.13 347.249 1772.78 346.448 1769.24L346.445 1769.23C345.648 1765.69 349.051 1764.43 353.453 1763.79C357.855 1763.15 361.589 1763.36 362.386 1766.91Z" fill="white"/>
<path d="M345.238 1735.27C341.297 1737.21 337.14 1738.4 332.908 1738.82C332.612 1738.85 332.318 1738.76 332.067 1738.57C331.816 1738.37 331.621 1738.09 331.509 1737.75L327.88 1726.68C327.744 1726.26 327.748 1725.79 327.892 1725.37C328.036 1724.96 328.309 1724.63 328.65 1724.46L351.302 1713.29C351.643 1713.12 352.025 1713.12 352.363 1713.3C352.701 1713.48 352.969 1713.81 353.106 1714.23L356.733 1725.3C356.844 1725.64 356.864 1726.01 356.788 1726.37C356.713 1726.72 356.546 1727.04 356.314 1727.27C352.961 1730.58 349.229 1733.28 345.238 1735.27Z" fill="#30E057"/>
<path opacity="0.2" d="M352.849 1714.36L353.455 1716.21L342.926 1727.53C342.729 1727.74 342.478 1727.86 342.217 1727.87L328.695 1728.25L328.138 1726.55C328.029 1726.21 328.032 1725.84 328.148 1725.51C328.263 1725.18 328.481 1724.91 328.753 1724.78L351.405 1713.6C351.678 1713.47 351.983 1713.47 352.254 1713.61C352.524 1713.76 352.738 1714.02 352.849 1714.36Z" fill="black"/>
<path d="M341.882 1725.56C341.727 1725.64 341.563 1725.68 341.396 1725.68L321.19 1726.26C320.905 1726.26 320.624 1726.16 320.386 1725.97C320.149 1725.77 319.966 1725.49 319.864 1725.17C319.761 1724.84 319.743 1724.48 319.813 1724.14C319.882 1723.8 320.036 1723.49 320.252 1723.27L334.498 1708.18C334.728 1707.94 335.017 1707.79 335.32 1707.77L356.226 1706.21C356.515 1706.19 356.802 1706.28 357.047 1706.47C357.292 1706.66 357.483 1706.94 357.593 1707.27C357.703 1707.59 357.727 1707.96 357.661 1708.3C357.594 1708.65 357.442 1708.96 357.224 1709.19L342.278 1725.26C342.161 1725.39 342.027 1725.49 341.882 1725.56Z" fill="#30E057"/>
<path d="M325.726 1732.88L325.211 1733.13L322.209 1723.97L337.911 1716.22L338.118 1716.85L322.931 1724.35L325.726 1732.88Z" fill="#3F3D56"/>
<path d="M325.675 1735C326.288 1735 326.785 1734.39 326.785 1733.64C326.785 1732.88 326.288 1732.27 325.675 1732.27C325.062 1732.27 324.565 1732.88 324.565 1733.64C324.565 1734.39 325.062 1735 325.675 1735Z" fill="#3F3D56"/>
<path d="M444.574 1683.24C440.972 1680.48 437.73 1677.07 434.957 1673.13C434.766 1672.85 434.651 1672.5 434.629 1672.14C434.607 1671.78 434.679 1671.42 434.834 1671.11L439.975 1660.98C440.17 1660.59 440.481 1660.32 440.839 1660.22C441.197 1660.12 441.574 1660.19 441.886 1660.43L462.612 1676.27C462.924 1676.51 463.146 1676.89 463.229 1677.33C463.312 1677.77 463.25 1678.23 463.056 1678.61L457.918 1688.74C457.76 1689.05 457.525 1689.29 457.248 1689.42C456.97 1689.56 456.665 1689.58 456.376 1689.49C452.214 1688.12 448.238 1686.02 444.574 1683.24Z" fill="#30E057"/>
<path opacity="0.2" d="M462.82 1678.43L461.961 1680.13L448.297 1676.38C448.042 1676.31 447.816 1676.13 447.657 1675.88L439.422 1662.71L440.211 1661.16C440.367 1660.85 440.615 1660.63 440.902 1660.55C441.188 1660.47 441.489 1660.53 441.739 1660.72L462.465 1676.56C462.714 1676.75 462.891 1677.05 462.958 1677.4C463.025 1677.75 462.975 1678.12 462.82 1678.43Z" fill="black"/>
<path d="M448.977 1674.18C448.836 1674.08 448.711 1673.94 448.61 1673.78L436.302 1654.1C436.128 1653.82 436.029 1653.49 436.017 1653.14C436.005 1652.79 436.082 1652.44 436.236 1652.14C436.391 1651.85 436.616 1651.62 436.881 1651.49C437.145 1651.36 437.437 1651.33 437.715 1651.41L456.048 1656.61C456.343 1656.69 456.609 1656.89 456.803 1657.18L470.17 1676.97C470.355 1677.24 470.465 1677.58 470.486 1677.93C470.506 1678.29 470.436 1678.64 470.285 1678.94C470.134 1679.25 469.91 1679.48 469.644 1679.62C469.377 1679.76 469.082 1679.79 468.8 1679.72L449.408 1674.4C449.255 1674.36 449.11 1674.29 448.977 1674.18Z" fill="#30E057"/>
<path d="M434.625 1662.5L434.154 1662.14L438.407 1653.76L452.774 1664.74L452.48 1665.32L438.584 1654.7L434.625 1662.5Z" fill="#3F3D56"/>
<path d="M434.097 1664.26C434.709 1664.26 435.206 1663.65 435.206 1662.9C435.206 1662.15 434.709 1661.54 434.097 1661.54C433.484 1661.54 432.987 1662.15 432.987 1662.9C432.987 1663.65 433.484 1664.26 434.097 1664.26Z" fill="#3F3D56"/>
<path d="M502.387 1748.49C515.584 1748.49 526.283 1735.36 526.283 1719.16C526.283 1702.97 515.584 1689.84 502.387 1689.84C489.189 1689.84 478.49 1702.97 478.49 1719.16C478.49 1735.36 489.189 1748.49 502.387 1748.49Z" fill="#2F2E41"/>
<path d="M518.953 1734.37L512.758 1739.01L519.541 1752.63L525.736 1747.99L518.953 1734.37Z" fill="#2F2E41"/>
<path d="M506.564 1743.66L500.37 1748.3L507.152 1761.92L513.347 1757.28L506.564 1743.66Z" fill="#2F2E41"/>
<path d="M521.836 1754.39C524.687 1752.25 526.468 1749.46 525.815 1748.15C525.162 1746.83 522.321 1747.5 519.47 1749.64C516.619 1751.78 514.837 1754.58 515.491 1755.89C516.144 1757.2 518.985 1756.53 521.836 1754.39Z" fill="#2F2E41"/>
<path d="M509.289 1763.37C512.14 1761.23 513.921 1758.43 513.268 1757.12C512.615 1755.81 509.774 1756.48 506.923 1758.62C504.072 1760.75 502.29 1763.55 502.944 1764.86C503.597 1766.17 506.438 1765.51 509.289 1763.37Z" fill="#2F2E41"/>
<path d="M488.95 1714.25C490.576 1712.25 487.699 1705.48 482.523 1699.13C477.348 1692.77 471.835 1689.23 470.209 1691.23C468.583 1693.22 471.46 1699.99 476.635 1706.35C481.811 1712.7 487.324 1716.24 488.95 1714.25Z" fill="#2F2E41"/>
<path d="M534.696 1744.02C536.584 1742.41 534.729 1735.12 530.553 1727.74C526.377 1720.36 521.461 1715.68 519.573 1717.29C517.685 1718.9 519.54 1726.19 523.716 1733.57C527.892 1740.95 532.808 1745.63 534.696 1744.02Z" fill="#2F2E41"/>
<path d="M495.069 1720.94C499.579 1720.94 503.236 1716.46 503.236 1710.92C503.236 1705.38 499.579 1700.9 495.069 1700.9C490.558 1700.9 486.901 1705.38 486.901 1710.92C486.901 1716.46 490.558 1720.94 495.069 1720.94Z" fill="white"/>
<path d="M492.295 1710.86C493.798 1710.86 495.017 1709.36 495.017 1707.52C495.017 1705.67 493.798 1704.17 492.295 1704.17C490.791 1704.17 489.572 1705.67 489.572 1707.52C489.572 1709.36 490.791 1710.86 492.295 1710.86Z" fill="#3F3D56"/>
<path d="M484.551 1727.64C483.003 1730.75 485.066 1734.97 489.16 1737.05C493.254 1739.13 497.829 1738.29 499.378 1735.18L499.383 1735.17C500.928 1732.05 497.928 1729.72 493.832 1727.64C489.736 1725.56 486.096 1724.52 484.551 1727.64Z" fill="white"/>
<path d="M494.368 1682.34C496.502 1671.79 505.921 1665.59 515.406 1668.48C524.891 1671.37 530.85 1682.26 528.717 1692.81C526.583 1703.35 519.504 1703.39 510.019 1700.5C500.533 1697.61 492.234 1692.89 494.368 1682.34Z" fill="#E6E6E6"/>
<path d="M577.445 1795H128.555C128.408 1795 128.267 1794.93 128.163 1794.8C128.058 1794.67 128 1794.5 128 1794.32C128 1794.14 128.058 1793.97 128.163 1793.84C128.267 1793.71 128.408 1793.64 128.555 1793.64H577.445C577.592 1793.64 577.733 1793.71 577.837 1793.84C577.942 1793.97 578 1794.14 578 1794.32C578 1794.5 577.942 1794.67 577.837 1794.8C577.733 1794.93 577.592 1795 577.445 1795Z" fill="#CBCBCB"/>
</g>
<g filter="url(#filter0_f_122_488)">
<path d="M520.895 474.5C520.895 344.989 408.766 240 270.448 240C132.129 240 20 344.989 20 474.5C20 604.011 132.129 709 270.448 709C408.766 709 520.895 604.011 520.895 474.5Z" fill="#22C55E" fill-opacity="0.71"/>
</g>
<g filter="url(#filter1_f_122_488)">
<ellipse cx="230.264" cy="234.2" rx="230.264" ry="234.2" transform="matrix(0.767062 0.641573 0.669794 -0.742547 195 526.809)" fill="#39A331" fill-opacity="0.76"/>
</g>
<g filter="url(#filter2_f_122_488)">
<ellipse cx="228.47" cy="226.891" rx="228.47" ry="226.891" transform="matrix(1 0 0 -1 194.642 473.781)" fill="#22C55E" fill-opacity="0.78"/>
</g>
<g filter="url(#filter3_f_122_488)">
<circle cx="1463" cy="1668" r="250" fill="#22C55E" fill-opacity="0.78"/>
</g>
<g filter="url(#filter4_f_122_488)">
<circle cx="1635" cy="1424" r="250" fill="#39A331" fill-opacity="0.76"/>
</g>
<g filter="url(#filter5_f_122_488)">
<circle cx="1744" cy="1714" r="250" fill="#22C55E" fill-opacity="0.71"/>
</g>
<defs>
<filter id="filter0_f_122_488" x="0" y="220" width="540.895" height="509" filterUnits="userSpaceOnUse" color-interpolation-filters="sRGB">
<feFlood flood-opacity="0" result="BackgroundImageFix"/>
<feBlend mode="normal" in="SourceGraphic" in2="BackgroundImageFix" result="shape"/>
<feGaussianBlur stdDeviation="10" result="effect1_foregroundBlur_122_488"/>
</filter>
<filter id="filter1_f_122_488" x="272.262" y="252.449" width="512.462" height="496.374" filterUnits="userSpaceOnUse" color-interpolation-filters="sRGB">
<feFlood flood-opacity="0" result="BackgroundImageFix"/>
<feBlend mode="normal" in="SourceGraphic" in2="BackgroundImageFix" result="shape"/>
<feGaussianBlur stdDeviation="10" result="effect1_foregroundBlur_122_488"/>
</filter>
<filter id="filter2_f_122_488" x="174.642" y="0.000244141" width="496.94" height="493.781" filterUnits="userSpaceOnUse" color-interpolation-filters="sRGB">
<feFlood flood-opacity="0" result="BackgroundImageFix"/>
<feBlend mode="normal" in="SourceGraphic" in2="BackgroundImageFix" result="shape"/>
<feGaussianBlur stdDeviation="10" result="effect1_foregroundBlur_122_488"/>
</filter>
<filter id="filter3_f_122_488" x="1193" y="1398" width="540" height="540" filterUnits="userSpaceOnUse" color-interpolation-filters="sRGB">
<feFlood flood-opacity="0" result="BackgroundImageFix"/>
<feBlend mode="normal" in="SourceGraphic" in2="BackgroundImageFix" result="shape"/>
<feGaussianBlur stdDeviation="10" result="effect1_foregroundBlur_122_488"/>
</filter>
<filter id="filter4_f_122_488" x="1365" y="1154" width="540" height="540" filterUnits="userSpaceOnUse" color-interpolation-filters="sRGB">
<feFlood flood-opacity="0" result="BackgroundImageFix"/>
<feBlend mode="normal" in="SourceGraphic" in2="BackgroundImageFix" result="shape"/>
<feGaussianBlur stdDeviation="10" result="effect1_foregroundBlur_122_488"/>
</filter>
<filter id="filter5_f_122_488" x="1474" y="1444" width="540" height="540" filterUnits="userSpaceOnUse" color-interpolation-filters="sRGB">
<feFlood flood-opacity="0" result="BackgroundImageFix"/>
<feBlend mode="normal" in="SourceGraphic" in2="BackgroundImageFix" result="shape"/>
<feGaussianBlur stdDeviation="10" result="effect1_foregroundBlur_122_488"/>
</filter>
<clipPath id="clip0_122_488">
<rect width="450" height="207" fill="white" transform="translate(128 1588)"/>
</clipPath>
</defs>
</svg>
