<svg width="350" height="235" viewBox="0 0 350 235" fill="none" xmlns="http://www.w3.org/2000/svg">
<g clip-path="url(#clip0_419_264)">
<path d="M350 124.682C350 172.133 319.925 212.563 277.8 227.947C271.391 230.292 264.776 232.028 258.042 233.133C239.517 236.171 220.523 234.446 202.848 228.12C160.456 212.863 130.161 172.296 130.181 124.659C130.181 63.9817 179.39 14.7721 240.09 14.7721C263.031 14.7387 285.402 21.9157 304.041 35.2886C331.868 55.2256 350 87.8354 350 124.682Z" fill="#E5E5E5"/>
<path d="M277.799 227.947C271.391 230.292 264.776 232.028 258.042 233.133C239.517 236.171 220.523 234.446 202.848 228.12L207.923 207.754L208.23 206.531L218.588 206.571L270.625 206.758L271.291 208.726L277.799 227.947Z" fill="#2F2E41"/>
<path d="M95.472 0H0V108.03H95.472V0Z" fill="#E6E6E6"/>
<path d="M93.6027 2.2854H1.70215V105.744H93.6027V2.2854Z" fill="white"/>
<path d="M47.7359 102.066C50.581 102.066 52.8873 99.7596 52.8873 96.9145C52.8873 94.0694 50.581 91.7631 47.7359 91.7631C44.8909 91.7631 42.5845 94.0694 42.5845 96.9145C42.5845 99.7596 44.8909 102.066 47.7359 102.066Z" fill="#E6E6E6"/>
<path d="M46.8659 38.9077H17.2778V41.9346H46.8659V38.9077Z" fill="#E6E6E6"/>
<path d="M61.9342 47.9779H17.2778V51.0048H61.9342V47.9779Z" fill="#199A20"/>
<path d="M57.5508 57.1051H17.2778V60.132H57.5508V57.1051Z" fill="#E6E6E6"/>
<path d="M79.4678 65.9912H17.2778V69.0181H79.4678V65.9912Z" fill="#199A20"/>
<path d="M68.6077 74.4539H17.9243V77.4807H68.6077V74.4539Z" fill="#E6E6E6"/>
<path d="M135.758 175.786C136.121 176.159 136.454 176.56 136.755 176.985L183.419 175.843L188.863 165.896L204.95 172.149L197.023 190.696C196.383 192.194 195.274 193.445 193.862 194.259C192.451 195.073 190.814 195.408 189.196 195.213L136.473 188.844C135.229 190.418 133.536 191.577 131.617 192.165C129.699 192.754 127.647 192.744 125.735 192.138C123.822 191.532 122.139 190.358 120.91 188.772C119.681 187.186 118.964 185.264 118.854 183.26C118.744 181.257 119.247 179.268 120.295 177.557C121.344 175.846 122.888 174.495 124.723 173.684C126.558 172.872 128.596 172.638 130.567 173.013C132.538 173.389 134.348 174.355 135.757 175.784L135.758 175.786Z" fill="#9F616A"/>
<path d="M198.567 118.983L220.405 111.826L226.819 103.029L258.032 104.876L262.615 115.141L279.259 123.006L276.701 170.508L272.325 214.964C249.824 203.313 207.832 212.195 207.464 212.34L198.567 118.983Z" fill="#199A20"/>
<path d="M203.235 183.28L181.022 174.392L181.117 173.997C181.212 173.597 190.666 134.091 191.921 127.742C193.229 121.128 198.007 119.299 198.21 119.225L198.358 119.17L207.149 121.846L211.009 152.181L203.235 183.28Z" fill="#199A20"/>
<path d="M251.197 213.01C251.718 212.997 252.239 213.026 252.755 213.096L283.646 178.1L280.052 167.347L295.576 159.803L303.787 178.225C304.451 179.714 304.613 181.377 304.251 182.965C303.889 184.554 303.021 185.982 301.778 187.036L261.261 221.365C261.57 223.348 261.267 225.377 260.395 227.184C259.522 228.99 258.12 230.488 256.375 231.478C254.63 232.469 252.625 232.904 250.626 232.727C248.628 232.55 246.731 231.769 245.187 230.487C243.643 229.205 242.526 227.484 241.985 225.552C241.443 223.62 241.503 221.569 242.155 219.672C242.808 217.775 244.022 216.121 245.638 214.931C247.253 213.741 249.192 213.071 251.197 213.01Z" fill="#9F616A"/>
<path d="M281.18 181.507L268.294 151.196L273.32 130.083L278.735 123.242C279.132 123.072 279.559 122.987 279.99 122.991C280.422 122.995 280.848 123.088 281.241 123.265C283.239 124.069 284.938 126.533 286.296 130.587L298.372 164.985L281.18 181.507Z" fill="#199A20"/>
<path d="M214.325 91.7976V68.9463C214.312 64.9251 215.091 60.9407 216.617 57.2206C218.144 53.5004 220.388 50.1173 223.222 47.2645C226.056 44.4117 229.424 42.145 233.134 40.5938C236.844 39.0427 240.823 38.2375 244.845 38.2242C248.866 38.2108 252.85 38.9897 256.57 40.5162C260.291 42.0427 263.674 44.2871 266.526 47.121C269.379 49.955 271.646 53.3231 273.197 57.0331C274.748 60.7431 275.553 64.7223 275.567 68.7434C275.567 68.811 275.567 68.8787 275.567 68.9463V91.7976C275.566 92.8881 275.132 93.9336 274.361 94.7047C273.59 95.4758 272.544 95.9096 271.453 95.9108H218.439C217.348 95.9096 216.303 95.4758 215.531 94.7047C214.76 93.9336 214.327 92.8881 214.325 91.7976Z" fill="#2F2E41"/>
<path d="M238.654 95.3785C251.052 95.3785 261.103 85.3273 261.103 72.9285C261.103 60.5298 251.052 50.4786 238.654 50.4786C226.255 50.4786 216.204 60.5298 216.204 72.9285C216.204 85.3273 226.255 95.3785 238.654 95.3785Z" fill="#9F616A"/>
<path d="M207.081 70.7745C207.088 64.3525 209.643 58.1956 214.184 53.6546C218.725 49.1136 224.882 46.5592 231.304 46.552H235.874C242.296 46.5592 248.453 49.1136 252.994 53.6546C257.535 58.1956 260.089 64.3525 260.096 70.7745V71.2314H250.437L247.143 62.0057L246.484 71.2314H241.493L239.831 66.5772L239.498 71.2314H207.081V70.7745Z" fill="#2F2E41"/>
<path d="M236.444 98.4807C235.991 97.8666 235.72 97.137 235.663 96.3759C235.606 95.6147 235.765 94.8529 236.122 94.1782C240.965 84.9664 247.746 67.9447 238.746 57.4473L238.1 56.694H264.231V95.9251L240.493 100.113C240.253 100.156 240.01 100.177 239.766 100.178C239.118 100.178 238.479 100.024 237.902 99.7291C237.325 99.4343 236.826 99.0068 236.446 98.4817L236.444 98.4807Z" fill="#2F2E41"/>
<path d="M47.653 8.41382C45.4863 8.41371 43.3683 9.05608 41.5668 10.2597C39.7653 11.4633 38.3611 13.1741 37.5318 15.1758C36.7026 17.1774 36.4856 19.38 36.9081 21.5051C37.3307 23.6301 38.3739 25.5821 39.9059 27.1142C41.4379 28.6463 43.3897 29.6897 45.5147 30.1125C47.6397 30.5353 49.8423 30.3185 51.844 29.4895C53.8458 28.6604 55.5567 27.2564 56.7605 25.455C57.9643 23.6536 58.6069 21.5357 58.607 19.369V19.3685C58.607 17.9299 58.3237 16.5054 57.7732 15.1763C57.2227 13.8472 56.4157 12.6396 55.3985 11.6224C54.3813 10.6051 53.1736 9.79821 51.8446 9.24769C50.5155 8.69717 49.091 8.41382 47.6524 8.41382H47.653ZM47.653 11.6999C48.3029 11.6999 48.9382 11.8926 49.4786 12.2537C50.019 12.6148 50.4402 13.128 50.6889 13.7285C50.9377 14.3289 51.0027 14.9897 50.8759 15.6271C50.7491 16.2645 50.4362 16.8501 49.9766 17.3096C49.517 17.7692 48.9315 18.0822 48.2941 18.209C47.6566 18.3358 46.9959 18.2707 46.3954 18.022C45.795 17.7733 45.2818 17.3521 44.9207 16.8117C44.5596 16.2713 44.3669 15.636 44.3669 14.986C44.3669 14.1145 44.7131 13.2787 45.3293 12.6624C45.9456 12.0461 46.7814 11.6999 47.653 11.6999ZM47.653 27.5207C46.3547 27.5147 45.0775 27.1922 43.9321 26.5809C42.7867 25.9697 41.8078 25.0882 41.0802 24.013C41.133 21.822 45.462 20.6161 47.653 20.6161C49.8439 20.6161 54.173 21.822 54.2258 24.013C53.4973 25.0874 52.5182 25.9683 51.373 26.5794C50.2278 27.1906 48.951 27.5136 47.653 27.5207Z" fill="#199A20"/>
<path d="M47.7806 98.8892C52.2935 90.619 63.1046 85.3816 71.9484 90.1024C75.9291 92.227 79.0935 95.9852 80.098 100.427C81.2637 105.587 78.8074 110.508 76.2718 114.843C74.8956 117.196 73.3875 119.501 72.2485 121.983C71.0691 124.553 70.2261 127.524 71.1141 130.32C71.9134 132.839 73.9178 134.671 76.1126 136.017C78.5351 137.447 81.1118 138.598 83.7933 139.448C89.3132 141.284 95.1355 142.037 100.941 141.666C103.826 141.47 106.687 141.008 109.487 140.285C112.466 139.525 115.389 138.563 118.372 137.82C123.354 136.583 129.033 135.968 133.757 138.453C138.346 140.868 140.399 145.92 141.034 150.834C142.207 159.909 138.609 169.326 132.113 175.68C128.996 178.729 125.074 181.248 120.802 182.279C117.075 183.178 112.289 183.12 109.323 180.334C106.013 177.224 106.791 172.238 109.42 168.957C112.776 164.77 118.461 163.765 123.533 163.663C129.304 163.547 135.069 164.406 140.836 163.872C143.652 163.653 146.414 162.987 149.019 161.898C151.31 160.891 153.399 159.477 155.186 157.726C158.746 154.266 161.147 149.658 162.342 144.867C163.779 139.105 163.466 133.049 162.35 127.262C161.755 124.277 160.989 121.33 160.056 118.433C159.67 117.211 157.74 117.734 158.129 118.964C161.566 129.863 163.482 142.466 156.841 152.585C154.093 156.877 149.812 159.959 144.87 161.203C139.123 162.631 133.092 161.925 127.248 161.713C121.692 161.51 115.591 161.729 110.828 164.965C106.921 167.619 104.189 172.667 105.37 177.433C106.508 182.03 110.925 184.361 115.343 184.72C119.978 185.098 124.54 183.542 128.432 181.109C136.53 176.049 141.914 167.15 143.041 157.715C143.628 152.798 143.031 147.503 140.801 143.04C139.626 140.625 137.798 138.587 135.523 137.158C133.255 135.768 130.635 135.083 128.004 134.841C122.026 134.29 116.283 136.343 110.612 137.913C107.716 138.753 104.746 139.32 101.744 139.606C98.8293 139.847 95.8983 139.799 92.9934 139.463C90.111 139.123 87.2704 138.493 84.5147 137.581C81.8144 136.747 79.2289 135.578 76.8184 134.102C74.6918 132.742 72.8526 130.794 72.7481 128.14C72.6345 125.262 74.0856 122.57 75.4658 120.144C78.1926 115.351 81.5608 110.663 82.2719 105.051C82.8947 100.143 80.9197 95.3055 77.5091 91.8047C75.7999 90.0277 73.7421 88.6229 71.4648 87.6781C69.1874 86.7334 66.7395 86.269 64.2743 86.3142C59.2142 86.459 54.3691 88.6596 50.6472 92.0391C48.8012 93.7163 47.2478 95.6895 46.051 97.8777C45.4345 99.0071 47.1594 100.017 47.7766 98.8862L47.7806 98.8892Z" fill="#3F3D56"/>
</g>
<defs>
<clipPath id="clip0_419_264">
<rect width="350" height="234.592" fill="white"/>
</clipPath>
</defs>
</svg>
